<svg width="945" height="594" viewBox="0 0 945 594" xmlns="http://www.w3.org/2000/svg" xmlns:xlink="http://www.w3.org/1999/xlink"><title>Clipped</title><defs><path id="a" d="M0 0h945v594H0z"/></defs><g fill="none" fill-rule="evenodd"><mask id="b" fill="#fff"><use xlink:href="#a"/></mask><use fill="#F6F6F6" xlink:href="#a"/><g mask="url(#b)"><path d="M726 481.7c-1.3-5.3-3.1-10.1-7.5-13.5-.6-.6-1.1-1.1-1.8-1.6-.6-.5-1.2-.7-1.8-.8-.3-.1-.7-.2-1-.3-3.6-.8-6.5.3-9.1 2.2-1.1-1.1-3.2-.9-4.3.3-.6-1.8-1.8-3.4-3.6-4.3-.6-.3-1.3-.5-1.9-.7-4.8-4.2-11.8-5.2-17.9-2.5-.5 0-.9.2-1.4.5-.3.2-.5.4-.8.6-.5.1-1.1.3-1.6.5-1.6-2.7-4.4-4.4-8-4.4-1.6 0-3.1.6-4.4 1.5-5.4.2-7.3 5.3-7.3 10.3-2.4 6.2-2.6 13.6-2.3 20.2.3 6 1.2 12 2.6 17.9-.6.3-1 .9-1.3 1.7-4.5 12-5 24.8-1.8 36.9.3 2.7.9 5.3 2 7.9.3.6.7 1.2 1.2 1.6-.1 1.5.9 3 2.8 2.9h.8c1.2.5 2.6.7 3.8.4 1.6.5 3.2.5 4.7 0 5.9-.4 10.8-4.4 14.8-9.1.3 0 .6-.1.9-.2 0 .1.1.1.1.2.2.5.3 1 .5 1.4.6 1.8 2.9 2.6 4.4 1.8.5 0 1-.2 1.4-.4.1.3.2.6.2.9.7 2.4 3.6 2.8 5.1 1.2.5-.2 1-.6 1.4-1.3l1.5-3c.1 0 .2.1.3.1h.1c.9.4 1.8.7 2.7 1.1 1.6.9 3.4 1.5 5.2 1.7 3.2.8 6.6 1.1 10.1.4 5.7-1.1 9.4-5.8 10.4-11.3.2-1.3.4-2.7.5-4.1.3-2.1.4-4.2.3-6.2.9-.5 1.6-1.4 1.5-2.5-.1-1.9-.3-3.8-.4-5.7.3-.3.5-.7.6-1.2 2.4-13.1 1.3-28.2-1.7-41.1z" fill="#F6F6F6"/><path d="M686.6 457.7c-3.5-.1-10.3 1.5-12.2 4.8-1.8 3-.6 6.5 3.1 6.6 1.8.1 2.9-2.4 1.5-3.7.4.3 3.2-1.2 4.2-1.5 3.1-1 6.2-.7 8.7 1.5 3.8 3.3 3.1 9.4 4 13.9.5 2.4 4.6 2.5 4.9 0 1.6-10-2.9-21.3-14.2-21.6zm-447.4 91.9h23v54.9h-23v-54.9zm434.5 0h24.4v54.9h-24.4v-54.9zm43.2-221.9h161v15.9h-161v-15.9z" fill="#F6F6F6"/><path d="M723.9 329h146.9v289H723.9V329zM448.2 436.6h205V618h-205V436.6zM57 388.3h147V618H57V388.3zm232.4 160.5c-.2-10.8-.3-21.7-.5-32.5 0-3.2-4.4-4-5.7-1.2-.9.2-1.6.7-2 1.6-1.1-.2-2.3.2-2.9 1-1 0-2 .5-2.7 1.3-.5-.7-1-1.4-1.7-2.1-1.4-1.3-3.7-1-4.7.5-1.9-1.9-4.7-.8-6.2 1.2-.5-.2-1-.3-1.5-.3-1.6 0-2.7.6-3.4 1.6-.2-.3-.5-.6-.7-.8-1.8-2-4.7-.5-5.1 1.8-.8.1-1.7.4-2.6 1.2-.3.3-.6.6-.8 1-1.7-1.1-3.7-1.3-5.2-.6-2.8-1.3-6.5-2.1-8 1-.1.2-.1.3-.2.5-.8.1-1.6.4-2.3 1.2-.7.8-1.2 1.8-1.4 2.8-1.3.1-2.3 1.1-2.6 2.4-2-.3-3.8-.1-5.5 1.2-.2.1-.4.2-.5.2-2.6-.5-5.2-.5-7 .6-2.2 1.3-2.4 3.2-1.3 5.2 1 2.8 4.5 5.3 6.6 6.8 4.1 2.9 9.7 4.4 14.3 1.9 1.5.4 3.1.6 4.5.4 2.4 1 5.2 1.3 7.1-.1.8 0 1.5-.1 2.2-.4 1 .4 1.9.7 2.9.8h1.5c2 1.9 4.3 3.2 7 3.3.2.2.3.4.5.6 1 1.3 2.8 2 4.5 2.1.5.6 1.1 1 1.9 1.3.7.3 1.4.4 2.1.4.6.6 1.1 1.1 1.7 1.6.9.8 2.2 1 3.2.6 1.1.4 2.3.6 3.4.3.3.3.7.6 1.1.9 2 1.5 4.3-.6 4.5-2.6 0-.4.1-.8.1-1.2 1.8.5 4-.5 3.9-2.8v-.2c.8-.3 1.5-1.2 1.5-2.5z" fill="#F6F6F6"/><path d="M204 620H57c-1.1 0-2-.9-2-2V371.7c0-1.1.9-2 2-2h147c1.1 0 2 .9 2 2V618c0 1.1-.9 2-2 2zm-145-4h143V373.7H59V616zm811.9 4h-147c-1.1 0-2-.9-2-2V343.7c0-1.1.9-2 2-2h147c1.1 0 2 .9 2 2V618c0 1.1-.9 2-2 2zm-145-4h143V345.7h-143V616zm-72.7 4h-205c-1.1 0-2-.9-2-2V436.6c0-1.1.9-2 2-2h205c1.1 0 2 .9 2 2V618c0 1.1-.9 2-2 2zm-203-4h201V438.6h-201V616z" fill="#DBDBDB"/><path fill="#F6F6F6" d="M290.2 512.3h205V618h-205z"/><path d="M495.2 620h-205c-1.1 0-2-.9-2-2V512.3c0-1.1.9-2 2-2h205c1.1 0 2 .9 2 2V618c0 1.1-.9 2-2 2zm-203-4h201V514.3h-201V616z" fill="#DBDBDB"/><path fill="#F6F6F6" d="M440.8 419.8h219.9v16.6H440.8z"/><path d="M660.7 438.4H440.8c-1.1 0-2-.9-2-2v-16.6c0-1.1.9-2 2-2h219.9c1.1 0 2 .9 2 2v16.6c0 1.1-.9 2-2 2zm-217.9-4h215.9v-12.6H442.8v12.6zm-350.3-4.2H75c-1.1 0-2-.9-2-2v-25.5c0-1.1.9-2 2-2h17.5c1.1 0 2 .9 2 2v25.5c0 1.1-.9 2-2 2zm-15.5-4h13.5v-21.5H77v21.5z" fill="#DBDBDB"/><path d="M92.5 430.2H75c-1.1 0-2-.9-2-2v-12.8c0-1.1.9-2 2-2h17.5c1.1 0 2 .9 2 2v12.8c0 1.1-.9 2-2 2zm-15.5-4h13.5v-8.8H77v8.8zm62.3 4h-17.5c-1.1 0-2-.9-2-2v-25.5c0-1.1.9-2 2-2h17.5c1.1 0 2 .9 2 2v25.5c0 1.1-.9 2-2 2zm-15.5-4h13.5v-21.5h-13.5v21.5z" fill="#DBDBDB"/><path d="M139.3 430.2h-17.5c-1.1 0-2-.9-2-2v-12.8c0-1.1.9-2 2-2h17.5c1.1 0 2 .9 2 2v12.8c0 1.1-.9 2-2 2zm-15.5-4h13.5v-8.8h-13.5v8.8zm62.3 4h-17.5c-1.1 0-2-.9-2-2v-25.5c0-1.1.9-2 2-2h17.5c1.1 0 2 .9 2 2v25.5c0 1.1-.9 2-2 2zm-15.5-4h13.5v-21.5h-13.5v21.5z" fill="#DBDBDB"/><path d="M186.1 430.2h-17.5c-1.1 0-2-.9-2-2v-12.8c0-1.1.9-2 2-2h17.5c1.1 0 2 .9 2 2v12.8c0 1.1-.9 2-2 2zm-15.5-4h13.5v-8.8h-13.5v8.8zm317.3 53.4H467c-1.1 0-2-.9-2-2v-28.9c0-1.1.9-2 2-2h20.9c1.1 0 2 .9 2 2v28.9c0 1.1-.9 2-2 2zm-18.9-4h16.9v-24.9H469v24.9z" fill="#DBDBDB"/><path fill="#F6F6F6" d="M463.7 468.1h27.5v9.5h-27.5z"/><path d="M491.2 479.6h-27.5c-1.1 0-2-.9-2-2v-9.5c0-1.1.9-2 2-2h27.5c1.1 0 2 .9 2 2v9.5c0 1.1-.9 2-2 2zm-25.5-4h23.5v-5.5h-23.5v5.5z" fill="#DBDBDB"/><path d="M477.5 470.1c-1.1 0-2-.9-2-2v-19.4c0-1.1.9-2 2-2s2 .9 2 2v19.4c0 1.1-.9 2-2 2zm157 9.5h-20.9c-1.1 0-2-.9-2-2v-28.9c0-1.1.9-2 2-2h20.9c1.1 0 2 .9 2 2v28.9c0 1.1-.9 2-2 2zm-18.9-4h16.9v-24.9h-16.9v24.9z" fill="#DBDBDB"/><path fill="#F6F6F6" d="M610.3 468.1h27.5v9.5h-27.5z"/><path d="M637.7 479.6h-27.5c-1.1 0-2-.9-2-2v-9.5c0-1.1.9-2 2-2h27.5c1.1 0 2 .9 2 2v9.5c0 1.1-.8 2-2 2zm-25.4-4h23.5v-5.5h-23.5v5.5z" fill="#DBDBDB"/><path d="M624 470.1c-1.1 0-2-.9-2-2v-19.4c0-1.1.9-2 2-2s2 .9 2 2v19.4c0 1.1-.9 2-2 2zm10.5 57.8h-20.9c-1.1 0-2-.9-2-2V497c0-1.1.9-2 2-2h20.9c1.1 0 2 .9 2 2v28.9c0 1.1-.9 2-2 2zm-18.9-4h16.9V499h-16.9v24.9z" fill="#DBDBDB"/><path fill="#F6F6F6" d="M610.3 516.4h27.5v9.5h-27.5z"/><path d="M637.7 527.9h-27.5c-1.1 0-2-.9-2-2v-9.5c0-1.1.9-2 2-2h27.5c1.1 0 2 .9 2 2v9.5c0 1.1-.8 2-2 2zm-25.4-4h23.5v-5.5h-23.5v5.5z" fill="#DBDBDB"/><path d="M624 518.4c-1.1 0-2-.9-2-2V497c0-1.1.9-2 2-2s2 .9 2 2v19.4c0 1.1-.9 2-2 2zm-89.3-38.8h-20.9c-1.1 0-2-.9-2-2v-28.9c0-1.1.9-2 2-2h20.9c1.1 0 2 .9 2 2v28.9c0 1.1-.9 2-2 2zm-18.9-4h16.9v-24.9h-16.9v24.9z" fill="#DBDBDB"/><path fill="#F6F6F6" d="M510.5 468.1H538v9.5h-27.5z"/><path d="M538 479.6h-27.5c-1.1 0-2-.9-2-2v-9.5c0-1.1.9-2 2-2H538c1.1 0 2 .9 2 2v9.5c0 1.1-.9 2-2 2zm-25.5-4H536v-5.5h-23.5v5.5z" fill="#DBDBDB"/><path d="M524.2 470.1c-1.1 0-2-.9-2-2v-19.4c0-1.1.9-2 2-2s2 .9 2 2v19.4c0 1.1-.8 2-2 2zm10.5 57.8h-20.9c-1.1 0-2-.9-2-2V497c0-1.1.9-2 2-2h20.9c1.1 0 2 .9 2 2v28.9c0 1.1-.9 2-2 2zm-18.9-4h16.9V499h-16.9v24.9z" fill="#DBDBDB"/><path fill="#F6F6F6" d="M510.5 516.4H538v9.5h-27.5z"/><path d="M538 527.9h-27.5c-1.1 0-2-.9-2-2v-9.5c0-1.1.9-2 2-2H538c1.1 0 2 .9 2 2v9.5c0 1.1-.9 2-2 2zm-25.5-4H536v-5.5h-23.5v5.5z" fill="#DBDBDB"/><path d="M524.2 518.4c-1.1 0-2-.9-2-2V497c0-1.1.9-2 2-2s2 .9 2 2v19.4c0 1.1-.8 2-2 2zm10.5 57.8h-20.9c-1.1 0-2-.9-2-2v-28.9c0-1.1.9-2 2-2h20.9c1.1 0 2 .9 2 2v28.9c0 1.1-.9 2-2 2zm-18.9-4h16.9v-24.9h-16.9v24.9z" fill="#DBDBDB"/><path fill="#F6F6F6" d="M510.5 564.7H538v9.5h-27.5z"/><path d="M538 576.2h-27.5c-1.1 0-2-.9-2-2v-9.5c0-1.1.9-2 2-2H538c1.1 0 2 .9 2 2v9.5c0 1.1-.9 2-2 2zm-25.5-4H536v-5.5h-23.5v5.5z" fill="#DBDBDB"/><path d="M524.2 566.7c-1.1 0-2-.9-2-2v-19.4c0-1.1.9-2 2-2s2 .9 2 2v19.4c0 1.1-.8 2-2 2zm59-87.1h-20.9c-1.1 0-2-.9-2-2v-28.9c0-1.1.9-2 2-2h20.9c1.1 0 2 .9 2 2v28.9c0 1.1-.9 2-2 2zm-18.9-4h16.9v-24.9h-16.9v24.9z" fill="#DBDBDB"/><path fill="#F6F6F6" d="M559 468.1h27.5v9.5H559z"/><path d="M586.5 479.6H559c-1.1 0-2-.9-2-2v-9.5c0-1.1.9-2 2-2h27.5c1.1 0 2 .9 2 2v9.5c0 1.1-.9 2-2 2zm-25.5-4h23.5v-5.5H561v5.5z" fill="#DBDBDB"/><path d="M572.7 470.1c-1.1 0-2-.9-2-2v-19.4c0-1.1.9-2 2-2s2 .9 2 2v19.4c0 1.1-.8 2-2 2zm10.5 57.8h-20.9c-1.1 0-2-.9-2-2V497c0-1.1.9-2 2-2h20.9c1.1 0 2 .9 2 2v28.9c0 1.1-.9 2-2 2zm-18.9-4h16.9V499h-16.9v24.9z" fill="#DBDBDB"/><path fill="#F6F6F6" d="M559 516.4h27.5v9.5H559z"/><path d="M586.5 527.9H559c-1.1 0-2-.9-2-2v-9.5c0-1.1.9-2 2-2h27.5c1.1 0 2 .9 2 2v9.5c0 1.1-.9 2-2 2zm-25.5-4h23.5v-5.5H561v5.5z" fill="#DBDBDB"/><path d="M572.7 518.4c-1.1 0-2-.9-2-2V497c0-1.1.9-2 2-2s2 .9 2 2v19.4c0 1.1-.8 2-2 2zm10.5 57.8h-20.9c-1.1 0-2-.9-2-2v-28.9c0-1.1.9-2 2-2h20.9c1.1 0 2 .9 2 2v28.9c0 1.1-.9 2-2 2zm-18.9-4h16.9v-24.9h-16.9v24.9z" fill="#DBDBDB"/><path fill="#F6F6F6" d="M559 564.7h27.5v9.5H559z"/><path d="M586.5 576.2H559c-1.1 0-2-.9-2-2v-9.5c0-1.1.9-2 2-2h27.5c1.1 0 2 .9 2 2v9.5c0 1.1-.9 2-2 2zm-25.5-4h23.5v-5.5H561v5.5z" fill="#DBDBDB"/><path d="M572.7 566.7c-1.1 0-2-.9-2-2v-19.4c0-1.1.9-2 2-2s2 .9 2 2v19.4c0 1.1-.8 2-2 2zm61.8 9.5h-20.9c-1.1 0-2-.9-2-2v-28.9c0-1.1.9-2 2-2h20.9c1.1 0 2 .9 2 2v28.9c0 1.1-.9 2-2 2zm-18.9-4h16.9v-24.9h-16.9v24.9z" fill="#DBDBDB"/><path fill="#F6F6F6" d="M610.3 564.7h27.5v9.5h-27.5z"/><path d="M637.7 576.2h-27.5c-1.1 0-2-.9-2-2v-9.5c0-1.1.9-2 2-2h27.5c1.1 0 2 .9 2 2v9.5c0 1.1-.8 2-2 2zm-25.4-4h23.5v-5.5h-23.5v5.5z" fill="#DBDBDB"/><path d="M624 566.7c-1.1 0-2-.9-2-2v-19.4c0-1.1.9-2 2-2s2 .9 2 2v19.4c0 1.1-.9 2-2 2zM92.5 478.4H75c-1.1 0-2-.9-2-2v-25.5c0-1.1.9-2 2-2h17.5c1.1 0 2 .9 2 2v25.5c0 1.1-.9 2-2 2zm-15.5-4h13.5v-21.5H77v21.5z" fill="#DBDBDB"/><path d="M92.5 478.4H75c-1.1 0-2-.9-2-2v-12.8c0-1.1.9-2 2-2h17.5c1.1 0 2 .9 2 2v12.8c0 1.1-.9 2-2 2zm-15.5-4h13.5v-8.8H77v8.8zm62.3 4h-17.5c-1.1 0-2-.9-2-2v-25.5c0-1.1.9-2 2-2h17.5c1.1 0 2 .9 2 2v25.5c0 1.1-.9 2-2 2zm-15.5-4h13.5v-21.5h-13.5v21.5z" fill="#DBDBDB"/><path d="M139.3 478.4h-17.5c-1.1 0-2-.9-2-2v-12.8c0-1.1.9-2 2-2h17.5c1.1 0 2 .9 2 2v12.8c0 1.1-.9 2-2 2zm-15.5-4h13.5v-8.8h-13.5v8.8zm62.3 4h-17.5c-1.1 0-2-.9-2-2v-25.5c0-1.1.9-2 2-2h17.5c1.1 0 2 .9 2 2v25.5c0 1.1-.9 2-2 2zm-15.5-4h13.5v-21.5h-13.5v21.5z" fill="#DBDBDB"/><path d="M186.1 478.4h-17.5c-1.1 0-2-.9-2-2v-12.8c0-1.1.9-2 2-2h17.5c1.1 0 2 .9 2 2v12.8c0 1.1-.9 2-2 2zm-15.5-4h13.5v-8.8h-13.5v8.8zm-78.1 52.2H75c-1.1 0-2-.9-2-2v-25.5c0-1.1.9-2 2-2h17.5c1.1 0 2 .9 2 2v25.5c0 1.1-.9 2-2 2zm-15.5-4h13.5v-21.5H77v21.5z" fill="#DBDBDB"/><path d="M92.5 526.6H75c-1.1 0-2-.9-2-2v-12.8c0-1.1.9-2 2-2h17.5c1.1 0 2 .9 2 2v12.8c0 1.1-.9 2-2 2zm-15.5-4h13.5v-8.8H77v8.8zm62.3 4h-17.5c-1.1 0-2-.9-2-2v-25.5c0-1.1.9-2 2-2h17.5c1.1 0 2 .9 2 2v25.5c0 1.1-.9 2-2 2zm-15.5-4h13.5v-21.5h-13.5v21.5z" fill="#DBDBDB"/><path d="M139.3 526.6h-17.5c-1.1 0-2-.9-2-2v-12.8c0-1.1.9-2 2-2h17.5c1.1 0 2 .9 2 2v12.8c0 1.1-.9 2-2 2zm-15.5-4h13.5v-8.8h-13.5v8.8zm62.3 4h-17.5c-1.1 0-2-.9-2-2v-25.5c0-1.1.9-2 2-2h17.5c1.1 0 2 .9 2 2v25.5c0 1.1-.9 2-2 2zm-15.5-4h13.5v-21.5h-13.5v21.5z" fill="#DBDBDB"/><path d="M186.1 526.6h-17.5c-1.1 0-2-.9-2-2v-12.8c0-1.1.9-2 2-2h17.5c1.1 0 2 .9 2 2v12.8c0 1.1-.9 2-2 2zm-15.5-4h13.5v-8.8h-13.5v8.8zm-78.1 52.2H75c-1.1 0-2-.9-2-2v-25.5c0-1.1.9-2 2-2h17.5c1.1 0 2 .9 2 2v25.5c0 1.1-.9 2-2 2zm-15.5-4h13.5v-21.5H77v21.5z" fill="#DBDBDB"/><path d="M92.5 574.8H75c-1.1 0-2-.9-2-2V560c0-1.1.9-2 2-2h17.5c1.1 0 2 .9 2 2v12.8c0 1.1-.9 2-2 2zm-15.5-4h13.5V562H77v8.8zm62.3 4h-17.5c-1.1 0-2-.9-2-2v-25.5c0-1.1.9-2 2-2h17.5c1.1 0 2 .9 2 2v25.5c0 1.1-.9 2-2 2zm-15.5-4h13.5v-21.5h-13.5v21.5z" fill="#DBDBDB"/><path d="M139.3 574.8h-17.5c-1.1 0-2-.9-2-2V560c0-1.1.9-2 2-2h17.5c1.1 0 2 .9 2 2v12.8c0 1.1-.9 2-2 2zm-15.5-4h13.5V562h-13.5v8.8zm62.3 4h-17.5c-1.1 0-2-.9-2-2v-25.5c0-1.1.9-2 2-2h17.5c1.1 0 2 .9 2 2v25.5c0 1.1-.9 2-2 2zm-15.5-4h13.5v-21.5h-13.5v21.5z" fill="#DBDBDB"/><path d="M186.1 574.8h-17.5c-1.1 0-2-.9-2-2V560c0-1.1.9-2 2-2h17.5c1.1 0 2 .9 2 2v12.8c0 1.1-.9 2-2 2zm-15.5-4h13.5V562h-13.5v8.8z" fill="#DBDBDB"/><path fill="#F6F6F6" d="M290.2 512.3h205v15.4h-205z"/><path d="M205.7 539.5c-9.7 4.5-23.6.7-28.3-7.6-4.7-8.3.8-19.4 11.3-22.6-8.2-5-10.6-15.4-5.1-22.5s18-9.7 26.9-5.7c-12-5.6-11.3-18.3-6-24.8 11-13.4 28.3-2.2 28.3-2.2 6.3-13.7 25.2-11.8 30-8.5 4.8 3.2 6.7 9.2 4.4 13.9 5.4-2.2 12.4-1.7 17.2 1.3 4.8 3 7.4 8.4 6.2 13.3 9.3-1.5 19.5 3.7 22 11.2 2.5 7.5-3.1 16.3-12.1 18.8 4.7-1.9 11.1 1.6 10.7 5.9" fill="#F6F6F6"/><path d="M495.2 529.6h-205c-1.1 0-2-.9-2-2v-15.4c0-1.1.9-2 2-2h205c1.1 0 2 .9 2 2v15.4c0 1.1-.9 2-2 2zm-203-4h201v-11.4h-201v11.4z" fill="#DBDBDB"/><path d="M196.3 543.7c-2.3 0-4.7-.3-7-1-6-1.7-11.1-5.4-13.6-9.9-2.3-4.1-2.6-9-.7-13.7 1.8-4.5 5.3-8.2 9.7-10.5-3-2.7-5-6.3-5.7-10.2-.9-4.7.2-9.3 3.1-13 4.3-5.6 12.4-8.7 20.3-8.4-2-2.4-3.2-5.3-3.7-8.4-.8-5.3 1-10.7 4.6-14 10.9-9.8 24-5.5 28.8-3.4 3-5.3 7.9-9 13.8-10.5 6.5-1.6 13.7-.4 18.3 3.1 4.3 3.3 6.5 8 6.1 12.5 5.6-1.4 12.5-1.3 17 1.5 4.3 2.7 8.2 6.4 6.4 13.8 9.3-.2 18.5 5.2 21.1 12.9 1.2 3.7.8 7.9-1.2 11.7-1.3 2.4-3.1 4.6-5.3 6.2.7.3 1.3.7 2 1.2 2.3 1.7 3.5 4 3.3 6.4-.1 1.1-1.1 1.9-2.2 1.8-1.1-.1-1.9-1.1-1.8-2.2.1-1.4-1.1-2.5-1.7-2.9-1.6-1.2-3.7-1.6-5.4-1.3-.3.1-.7.2-1 .3-1 .3-2.1-.3-2.4-1.3-.3-1 .1-2.1 1.1-2.5.4-.2.8-.3 1.3-.4 3.8-1.4 7-4 8.7-7.4 1.5-2.8 1.8-5.9.9-8.6-2.2-6.6-11.4-11.2-19.8-9.9-.7.1-1.4-.2-1.9-.7-.5-.6-.6-1.3-.3-2 2.5-6.4.6-9.2-3.9-11.9-4.2-2.6-12.1-2.1-17-.1-.8.3-1.6.1-2.2-.5-.6-.6-.7-1.5-.3-2.2 1.8-3.7.2-8.4-3.8-11.5-3.6-2.7-9.6-3.7-14.9-2.4-3.8 1-9.1 3.5-12.1 10.1-.2.5-.7.9-1.2 1.1-.5.2-1.1.1-1.6-.2-.6-.3-14.7-8.2-26 1.9-2.6 2.4-3.9 6.4-3.3 10.4.4 2.8 2.1 8 8.8 11.1 1 .5 1.4 1.6 1 2.6-.5 1-1.6 1.4-2.6 1-8.1-3.6-19.6-1.2-24.5 5.1-2.2 2.8-3 6.3-2.3 9.8.7 4 3.2 7.5 6.9 9.7.7.4 1 1.2.9 2-.1.8-.6 1.4-1.4 1.7-4.9 1.5-8.8 5.1-10.6 9.5-1.4 3.6-1.2 7.2.5 10.2 2 3.6 6.2 6.6 11.2 8 5.3 1.5 10.9.9 15.2-1.5 1-.5 2.2-.2 2.7.8s.2 2.2-.8 2.7c-3.6 2.5-7.5 3.4-11.5 3.4z" fill="#DBDBDB"/><path d="M209.5 534c-3 4.9-3 10.9-.2 15.8s8.5 8.7 14.9 9.9c3.8.7 7.9.6 11.3-.9 3.5-1.4 6.1-4.3 6.4-7.5m12.8.3c3.5 5 10.2 8.4 17.2 8.6 7 .3 14.1-2.6 18.1-7.3" fill="#F6F6F6"/><path d="M228.6 562.2c-1.6 0-3.2-.2-4.8-.5-7.1-1.4-13.2-5.4-16.3-10.9-3.2-5.5-3.1-12.4.3-17.8.6-.9 1.8-1.2 2.7-.7.9.6 1.2 1.8.7 2.7-2.6 4.2-2.6 9.5-.2 13.8 2.5 4.4 7.7 7.8 13.6 9 3.7.7 7.3.5 10.2-.7 2.9-1.2 5-3.5 5.2-5.8.1-1.1 1-1.9 2.2-1.8 1.1.1 1.9 1.1 1.8 2.2-.3 3.8-3.3 7.4-7.6 9.2-2.4.8-5 1.3-7.8 1.3z" fill="#DBDBDB"/><path d="M239.2 596.1c-1.1 0-2-.9-2-2v-37.5c0-1.1.9-2 2-2s2 .9 2 2v37.5c0 1.1-.9 2-2 2zm23 0c-1.1 0-2-.9-2-2v-34c0-1.1.9-2 2-2s2 .9 2 2v34c0 1.1-.9 2-2 2z" fill="#DBDBDB"/><path d="M272.8 562.2h-.9c-7.6-.3-15-4-18.8-9.5-.6-.9-.4-2.2.5-2.8.9-.6 2.2-.4 2.8.5 3.1 4.5 9.3 7.5 15.7 7.8 6.4.2 12.9-2.4 16.5-6.6.7-.8 2-.9 2.8-.2.8.7.9 2 .2 2.8-4.2 4.9-11.5 8-18.8 8z" fill="#DBDBDB"/><path d="M232.9 544c.8 5.5 6.4 10.2 13.1 11 6.7.8 13.7-2.5 16.3-7.6" fill="#F6F6F6"/><path d="M247.9 557.2c-.7 0-1.5 0-2.2-.1-7.5-.9-13.9-6.3-14.8-12.7-.2-1.1.6-2.1 1.7-2.3 1.1-.2 2.1.6 2.3 1.7.7 4.5 5.6 8.6 11.3 9.3 5.8.7 12-2.2 14.3-6.5.5-1 1.7-1.4 2.7-.9 1 .5 1.4 1.7.9 2.7-2.8 5.2-9.5 8.8-16.2 8.8zm18.6-63.8c-.5 0-1-.2-1.4-.6-4.6-4.4-13.8-5.3-19.7-2-1 .6-2.2.2-2.7-.7-.5-1-.2-2.2.7-2.7 7.5-4.3 18.4-3.1 24.4 2.6.8.8.8 2 .1 2.8-.3.4-.9.6-1.4.6zm-66.7 26.8c-.9 0-1.7-.6-1.9-1.5-1.5-6.2 2.7-12.9 9.6-15.3 6.7-2.3 15.2-.2 19.3 4.7.7.8.6 2.1-.3 2.8-.8.7-2.1.6-2.8-.3-3.1-3.7-9.8-5.3-15-3.5-4.9 1.7-8.1 6.5-7.1 10.6.3 1.1-.4 2.2-1.5 2.4 0 .1-.1.1-.3.1zm77.5 10.7c-.7 0-1.4-.4-1.7-1-2.7-4.7-10.9-7-16.7-4.6-1 .4-2.2-.1-2.6-1.1-.4-1 .1-2.2 1.1-2.6 7.7-3.2 18.1-.2 21.7 6.3.5 1 .2 2.2-.8 2.7-.4.2-.7.3-1 .3z" fill="#DBDBDB"/><path d="M212.4 491.1c-.7 0-1.4-.4-1.8-1.1-2.4-4.7-2.3-9.6.3-13.8 3.6-5.8 11.3-9.3 20.6-9.3h.2c9.5 0 17.2 4.9 20.6 9.7 2.2 3.2 2.9 6.5 1.9 9.5-.4 1-1.5 1.6-2.5 1.2-1-.4-1.6-1.5-1.2-2.5.6-1.7.1-3.8-1.4-5.9-2.8-3.9-9.2-7.9-17.3-8-7.9 0-14.5 2.8-17.4 7.4-1.9 3-1.9 6.4-.2 9.9.5 1 .1 2.2-.9 2.7-.2.1-.6.2-.9.2zm43.1 79.6c-1.1 0-2-.9-2-2v-7.5c0-1.1.9-2 2-2s2 .9 2 2v7.5c0 1.1-.9 2-2 2zm.1 31.6c-1.1 0-2-.9-2-2v-23.9c0-1.1.9-2 2-2s2 .9 2 2v23.9c0 1.1-.9 2-2 2zM57 526.6h-7c-1.1 0-2-.9-2-2v-12.3c0-1.1.9-2 2-2h7c1.1 0 2 .9 2 2v12.3c0 1.1-.9 2-2 2zm-5-4h3v-8.3h-3v8.3zm5 52h-7c-1.1 0-2-.9-2-2v-12.3c0-1.1.9-2 2-2h7c1.1 0 2 .9 2 2v12.3c0 1.1-.9 2-2 2zm-5-4h3v-8.3h-3v8.3zm5-92.4h-7c-1.1 0-2-.9-2-2v-12.3c0-1.1.9-2 2-2h7c1.1 0 2 .9 2 2v12.3c0 1.1-.9 2-2 2zm-5-4h3v-8.3h-3v8.3zm5-44.2h-7c-1.1 0-2-.9-2-2v-12.3c0-1.1.9-2 2-2h7c1.1 0 2 .9 2 2V428c0 1.1-.9 2-2 2zm-5-4h3v-8.3h-3v8.3zm158.9 4.1h-7c-1.1 0-2-.9-2-2v-12.3c0-1.1.9-2 2-2h7c1.1 0 2 .9 2 2v12.3c0 1.1-.9 2-2 2zm-4.9-4h3v-8.3h-3v8.3zm4.9 148.5h-7c-1.1 0-2-.9-2-2v-12.3c0-1.1.9-2 2-2h7c1.1 0 2 .9 2 2v12.3c0 1.1-.9 2-2 2zm-4.9-4h3v-8.3h-3v8.3zM319.5 620h-12.3c-1.1 0-2-.9-2-2v-83.5c0-1.1.9-2 2-2h12.3c1.1 0 2 .9 2 2V618c0 1.1-.9 2-2 2zm-10.3-4h8.3v-79.5h-8.3V616z" fill="#DBDBDB"/><path d="M321.5 536.5h-16.3c-1.1 0-2-.9-2-2v-6.9c0-1.1.9-2 2-2h16.3c1.1 0 2 .9 2 2v6.9c0 1.1-.9 2-2 2zm-14.3-4h12.3v-2.9h-12.3v2.9zM477.9 620h-12.3c-1.1 0-2-.9-2-2v-83.5c0-1.1.9-2 2-2h12.3c1.1 0 2 .9 2 2V618c0 1.1-.9 2-2 2zm-10.3-4h8.3v-79.5h-8.3V616z" fill="#DBDBDB"/><path d="M479.9 536.5h-16.3c-1.1 0-2-.9-2-2v-6.9c0-1.1.9-2 2-2h16.3c1.1 0 2 .9 2 2v6.9c0 1.1-.9 2-2 2zm-14.3-4h12.3v-2.9h-12.3v2.9zM398.9 620h-12.3c-1.1 0-2-.9-2-2v-83.5c0-1.1.9-2 2-2h12.3c1.1 0 2 .9 2 2V618c0 1.1-.9 2-2 2zm-10.3-4h8.3v-79.5h-8.3V616z" fill="#DBDBDB"/><path d="M400.9 536.5h-16.3c-1.1 0-2-.9-2-2v-6.9c0-1.1.9-2 2-2h16.3c1.1 0 2 .9 2 2v6.9c0 1.1-.9 2-2 2zm-14.3-4h12.3v-2.9h-12.3v2.9z" fill="#DBDBDB"/><path fill="#F6F6F6" d="M300 484.6h185.3V512H300z"/><path d="M485.3 514H300c-1.1 0-2-.9-2-2v-27.4c0-1.1.9-2 2-2h185.3c1.1 0 2 .9 2 2V512c0 1.1-.9 2-2 2zM302 510h181.3v-23.4H302V510z" fill="#DBDBDB"/><path d="M328 514h-13c-1.1 0-2-.9-2-2v-14.6c0-3.9 3.8-7.1 8.4-7.1h.1c4.7 0 8.4 3.2 8.4 7.1V512c.1 1.1-.8 2-1.9 2zm-11-4h9v-12.6c0-1.7-2-3.1-4.4-3.1h-.1c-2.4 0-4.4 1.4-4.4 3.1V510h-.1zm46.5 4h-13c-1.1 0-2-.9-2-2v-14.6c0-3.9 3.8-7.1 8.4-7.1h.1c4.7 0 8.4 3.2 8.4 7.1V512c.1 1.1-.8 2-1.9 2zm-11-4h9v-12.6c0-1.7-2-3.1-4.4-3.1h-.1c-2.4 0-4.4 1.4-4.4 3.1V510h-.1zm82.1 4h-13c-1.1 0-2-.9-2-2v-14.6c0-3.9 3.8-7.1 8.4-7.1h.1c4.7 0 8.4 3.2 8.4 7.1V512c.1 1.1-.8 2-1.9 2zm-11-4h9v-12.6c0-1.7-2-3.1-4.4-3.1h-.2c-2.4 0-4.4 1.4-4.4 3.1V510zm-24.6 4h-13c-1.1 0-2-.9-2-2v-14.6c0-3.9 3.8-7.1 8.4-7.1h.1c4.7 0 8.4 3.2 8.4 7.1V512c.1 1.1-.8 2-1.9 2zm-11-4h9v-12.6c0-1.7-2-3.1-4.4-3.1h-.1c-2.4 0-4.4 1.4-4.4 3.1V510h-.1zm82.1 4h-13c-1.1 0-2-.9-2-2v-14.6c0-3.9 3.8-7.1 8.4-7.1h.1c4.7 0 8.4 3.2 8.4 7.1V512c.1 1.1-.8 2-1.9 2zm-11-4h9v-12.6c0-1.7-2-3.1-4.4-3.1h-.1c-2.4 0-4.4 1.4-4.4 3.1V510h-.1z" fill="#DBDBDB"/><path fill="#F6F6F6" d="M300 484.6l92.7-42.6 92.6 42.6z"/><path d="M485.4 486.6s-.1 0 0 0H300c-.9 0-1.8-.7-2-1.6-.2-.9.3-1.9 1.1-2.2l92.7-42.5c.5-.2 1.1-.2 1.7 0l92.4 42.5c.8.3 1.3 1 1.3 1.9.2 1-.7 1.9-1.8 1.9zm-176.2-4h167l-83.5-38.3-83.5 38.3zm128.7 88.3h-10.1c-1.1 0-2-.9-2-2v-28c0-1.1.9-2 2-2h10.1c1.1 0 2 .9 2 2v28c0 1.1-.9 2-2 2zm-8.1-4h6.1v-24h-6.1v24z" fill="#DBDBDB"/><path d="M427.8 570.9h-10.1c-1.1 0-2-.9-2-2v-20.1c0-5.5 5.4-10 12-10h.1c1.1 0 2 .9 2 2v28c0 1.2-.9 2.1-2 2.1zm-8-4h6.1V543c-3.5.6-6.1 3-6.1 5.8v18.1zm28.2 4h-10.1c-1.1 0-2-.9-2-2v-28c0-1.1.9-2 2-2h.1c6.6 0 12 4.5 12 10V569c0 1-.9 1.9-2 1.9zm-8.1-4h6.1v-18.1c0-2.8-2.6-5.1-6.1-5.8v23.9z" fill="#DBDBDB"/><path d="M450.2 620h-34.5c-1.1 0-2-.9-2-2v-49.1c0-1.1.9-2 2-2h34.5c1.1 0 2 .9 2 2V618c0 1.1-.9 2-2 2zm-32.5-4h30.5v-45.1h-30.5V616zm-59.9-45.1h-10.1c-1.1 0-2-.9-2-2v-28c0-1.1.9-2 2-2h10.1c1.1 0 2 .9 2 2v28c0 1.1-.9 2-2 2zm-8.1-4h6.1v-24h-6.1v24z" fill="#DBDBDB"/><path d="M347.7 570.9h-10.1c-1.1 0-2-.9-2-2v-20.1c0-5.5 5.4-10 12-10h.1c1.1 0 2 .9 2 2v28c0 1.2-.9 2.1-2 2.1zm-8.1-4h6.1V543c-3.5.6-6.1 3-6.1 5.8v18.1zm28.3 4h-10.1c-1.1 0-2-.9-2-2v-28c0-1.1.9-2 2-2h.1c6.6 0 12 4.5 12 10V569c0 1-.9 1.9-2 1.9zm-8.1-4h6.1v-18.1c0-2.8-2.6-5.1-6.1-5.8v23.9z" fill="#DBDBDB"/><path d="M370.1 620h-34.5c-1.1 0-2-.9-2-2v-49.1c0-1.1.9-2 2-2h34.5c1.1 0 2 .9 2 2V618c0 1.1-.9 2-2 2zm-32.5-4h30.5v-45.1h-30.5V616z" fill="#DBDBDB"/><path d="M370.1 581.5h-34.5c-1.1 0-2-.9-2-2v-10.6c0-1.1.9-2 2-2h34.5c1.1 0 2 .9 2 2v10.6c0 1.1-.9 2-2 2zm-32.5-4h30.5v-6.6h-30.5v6.6zm112.5 4h-34.5c-1.1 0-2-.9-2-2v-10.6c0-1.1.9-2 2-2h34.5c1.1 0 2 .9 2 2v10.6c0 1.1-.8 2-2 2zm-32.5-4h30.5v-6.6h-30.5v6.6zM668 496.2c-1.1 0-2-.9-2-2 0-4 2.7-7.8 6.8-9.8 3.9-1.9 9.1-2.1 13.2-.5 1 .4 1.5 1.6 1.1 2.6-.4 1-1.6 1.5-2.6 1.1-3.1-1.2-7-1.1-9.9.3-2.7 1.4-4.5 3.8-4.5 6.3-.1 1.1-1 2-2.1 2zm5.2 107.1c-1.1 0-2-.9-2-2v-42.8c0-1.1.9-2 2-2s2 .9 2 2v42.8c0 1.1-.8 2-2 2zm26.2-62.5c-2.3 0-4.6-.5-6.5-1.6-1-.5-1.3-1.7-.8-2.7.5-1 1.7-1.3 2.7-.8 2.1 1.1 4.9 1.4 7.3.7 2.3-.6 4.1-2.2 4.8-3.9.4-1 1.5-1.6 2.6-1.2 1 .4 1.6 1.5 1.2 2.6-1.1 2.9-3.9 5.4-7.4 6.4-1.3.4-2.6.5-3.9.5zm-.6-35.3c-.2 0-.5 0-.7-.1-1-.4-1.6-1.5-1.2-2.6.7-1.8 2.2-3.4 4.4-4.4 2.7-1.2 5.7-1.3 8.2-.3 1 .4 1.5 1.6 1.1 2.6-.4 1-1.6 1.5-2.6 1.1-1.5-.6-3.4-.5-5.1.3-1.1.5-2 1.3-2.3 2.1-.2.8-1 1.3-1.8 1.3zm-.7 101c-1.1 0-2-.9-2-2v-53.8c0-.8.4-1.5 1.1-1.8.7-.3 1.5-.2 2.1.3 2.9 2.4 7.3 3.8 11.5 3.6 4.2-.1 8.4-1.8 11.1-4.3.8-.8 2.1-.7 2.8.1.7.8.7 2.1-.1 2.8-3.4 3.2-8.5 5.3-13.7 5.4-3.8.1-7.7-.7-10.9-2.4v50.1c.1 1.1-.8 2-1.9 2z" fill="#DBDBDB"/><path d="M661 562.7c-2.5 0-5.1-.4-7.5-1.2-1-.4-1.6-1.5-1.2-2.5.4-1 1.5-1.6 2.5-1.2 6 2.1 13 .9 18.6-3.1 3.8-2.7 6.4-6.5 6.4-9.3 0-1.1.9-2 2-2s2 .9 2 2c0 4.2-3.1 9-8.1 12.5-4.4 3.1-9.6 4.8-14.7 4.8zm62.9-87.8c-.8 0-1.5-.4-1.8-1.2-1.3-3-4.9-5.5-9-6.2-4.2-.7-8.8.4-11.7 2.9-.6.5-1.5.6-2.2.3-.7-.3-1.2-1.1-1.1-1.9.2-3.8-3.2-7.7-7.9-9.1-4.9-1.4-10.9-.1-14.1 3-.4.4-1 .6-1.6.6-.6-.1-1.1-.4-1.5-.9-1.8-2.8-6.5-4.4-10.4-3.6-3.9.8-7.3 3.9-7.3 6.7 0 1.1-.9 2-2 2s-2-.9-2-2c-.1-4.8 4.5-9.5 10.5-10.7 4.7-1 10 .5 13.1 3.6 4.4-3.1 10.9-4.3 16.4-2.6 5.1 1.5 9 5.3 10.3 9.6 3.6-1.9 8-2.6 12.2-1.9 5.4.9 10.1 4.3 12 8.6.4 1 0 2.2-1 2.6-.3.1-.6.2-.9.2zm-54.3 56c-1 0-1.8-.7-2-1.7-.4-2.9-1.8-4.8-4.3-5.8-3.3-1.4-7.5-.7-8.5-.1-.5.7-1.5 1-2.3.7-1-.4-1.5-1.6-1.1-2.6.9-2.4 6.2-3 9.4-2.7 6 .6 9.9 4.2 10.8 9.9.2 1.1-.6 2.1-1.7 2.3h-.3zm20.1 39.6c-1.1 0-2-.9-2-2v-8.2c0-1.1.9-2 2-2s2 .9 2 2v8.2c0 1.1-.9 2-2 2zm0 19.7c-1.1 0-2-.9-2-2v-11.4c0-1.1.9-2 2-2s2 .9 2 2v11.4c0 1.1-.9 2-2 2zm188.2-244.5h-161c-1.1 0-2-.9-2-2v-16c0-1.1.9-2 2-2h161c1.1 0 2 .9 2 2v16c0 1.1-.9 2-2 2zm-159-4h157v-12h-157v12z" fill="#DBDBDB"/><g fill="#DBDBDB"><path d="M164.9 373.7c-1.1 0-2-.9-2-2v-28.1c0-1.1.9-2 2-2s2 .9 2 2v28.1c0 1.1-.9 2-2 2z"/><path d="M182.4 362h-.4l-27.6-6c-1.1-.2-1.8-1.3-1.5-2.4.2-1.1 1.3-1.8 2.4-1.5l27.6 6c1.1.2 1.8 1.3 1.5 2.4-.3.9-1.1 1.5-2 1.5z"/><path d="M176.3 371.2c-1.1 0-2-.9-2-2v-21.5c0-1.1.9-2 2-2s2 .9 2 2v21.5c0 1.1-.9 2-2 2z"/></g><g fill="#DBDBDB"><path d="M756.6 375.8h-18c-1.1 0-2-.9-2-2v-16.2c0-1.1.9-2 2-2h18c1.1 0 2 .9 2 2v16.2c0 1.1-.9 2-2 2zm-16-4h14v-12.2h-14v12.2zm115.5 4h-18c-1.1 0-2-.9-2-2v-16.2c0-1.1.9-2 2-2h18c1.1 0 2 .9 2 2v16.2c0 1.1-.9 2-2 2zm-16-4h14v-12.2h-14v12.2zm-50.3 4h-18c-1.1 0-2-.9-2-2v-16.2c0-1.1.9-2 2-2h18c1.1 0 2 .9 2 2v16.2c0 1.1-.9 2-2 2zm-16-4h14v-12.2h-14v12.2zm49.1 4h-18c-1.1 0-2-.9-2-2v-16.2c0-1.1.9-2 2-2h18c1.1 0 2 .9 2 2v16.2c0 1.1-.8 2-2 2zm-16-4h14v-12.2h-14v12.2z"/><path d="M756.6 383h-18c-1.1 0-2-.9-2-2v-7.2c0-1.1.9-2 2-2h18c1.1 0 2 .9 2 2v7.2c0 1.1-.9 2-2 2zm-16-4h14v-3.2h-14v3.2zm115.5 4h-18c-1.1 0-2-.9-2-2v-7.2c0-1.1.9-2 2-2h18c1.1 0 2 .9 2 2v7.2c0 1.1-.9 2-2 2zm-16-4h14v-3.2h-14v3.2zm-50.3 4h-18c-1.1 0-2-.9-2-2v-7.2c0-1.1.9-2 2-2h18c1.1 0 2 .9 2 2v7.2c0 1.1-.9 2-2 2zm-16-4h14v-3.2h-14v3.2zm49.1 4h-18c-1.1 0-2-.9-2-2v-7.2c0-1.1.9-2 2-2h18c1.1 0 2 .9 2 2v7.2c0 1.1-.8 2-2 2zm-16-4h14v-3.2h-14v3.2zm-50.3 44.1h-18c-1.1 0-2-.9-2-2v-16.2c0-1.1.9-2 2-2h18c1.1 0 2 .9 2 2v16.2c0 1.1-.9 2-2 2zm-16-4h14v-12.2h-14v12.2zm115.5 4h-18c-1.1 0-2-.9-2-2v-16.2c0-1.1.9-2 2-2h18c1.1 0 2 .9 2 2v16.2c0 1.1-.9 2-2 2zm-16-4h14v-12.2h-14v12.2zm-50.3 4h-18c-1.1 0-2-.9-2-2v-16.2c0-1.1.9-2 2-2h18c1.1 0 2 .9 2 2v16.2c0 1.1-.9 2-2 2zm-16-4h14v-12.2h-14v12.2zm49.1 4h-18c-1.1 0-2-.9-2-2v-16.2c0-1.1.9-2 2-2h18c1.1 0 2 .9 2 2v16.2c0 1.1-.8 2-2 2zm-16-4h14v-12.2h-14v12.2z"/><path d="M756.6 430.3h-18c-1.1 0-2-.9-2-2v-7.2c0-1.1.9-2 2-2h18c1.1 0 2 .9 2 2v7.2c0 1.1-.9 2-2 2zm-16-4h14v-3.2h-14v3.2zm115.5 4h-18c-1.1 0-2-.9-2-2v-7.2c0-1.1.9-2 2-2h18c1.1 0 2 .9 2 2v7.2c0 1.1-.9 2-2 2zm-16-4h14v-3.2h-14v3.2zm-50.3 4h-18c-1.1 0-2-.9-2-2v-7.2c0-1.1.9-2 2-2h18c1.1 0 2 .9 2 2v7.2c0 1.1-.9 2-2 2zm-16-4h14v-3.2h-14v3.2zm49.1 4h-18c-1.1 0-2-.9-2-2v-7.2c0-1.1.9-2 2-2h18c1.1 0 2 .9 2 2v7.2c0 1.1-.8 2-2 2zm-16-4h14v-3.2h-14v3.2zm-50.3 44.1h-18c-1.1 0-2-.9-2-2v-16.2c0-1.1.9-2 2-2h18c1.1 0 2 .9 2 2v16.2c0 1.1-.9 2-2 2zm-16-4h14v-12.2h-14v12.2zm115.5 4h-18c-1.1 0-2-.9-2-2v-16.2c0-1.1.9-2 2-2h18c1.1 0 2 .9 2 2v16.2c0 1.1-.9 2-2 2zm-16-4h14v-12.2h-14v12.2zm-50.3 4h-18c-1.1 0-2-.9-2-2v-16.2c0-1.1.9-2 2-2h18c1.1 0 2 .9 2 2v16.2c0 1.1-.9 2-2 2zm-16-4h14v-12.2h-14v12.2zm49.1 4h-18c-1.1 0-2-.9-2-2v-16.2c0-1.1.9-2 2-2h18c1.1 0 2 .9 2 2v16.2c0 1.1-.8 2-2 2zm-16-4h14v-12.2h-14v12.2z"/><path d="M756.6 477.6h-18c-1.1 0-2-.9-2-2v-7.2c0-1.1.9-2 2-2h18c1.1 0 2 .9 2 2v7.2c0 1.1-.9 2-2 2zm-16-4h14v-3.2h-14v3.2zm115.5 4h-18c-1.1 0-2-.9-2-2v-7.2c0-1.1.9-2 2-2h18c1.1 0 2 .9 2 2v7.2c0 1.1-.9 2-2 2zm-16-4h14v-3.2h-14v3.2zm-50.3 4h-18c-1.1 0-2-.9-2-2v-7.2c0-1.1.9-2 2-2h18c1.1 0 2 .9 2 2v7.2c0 1.1-.9 2-2 2zm-16-4h14v-3.2h-14v3.2zm49.1 4h-18c-1.1 0-2-.9-2-2v-7.2c0-1.1.9-2 2-2h18c1.1 0 2 .9 2 2v7.2c0 1.1-.8 2-2 2zm-16-4h14v-3.2h-14v3.2zm-50.3 44.1h-18c-1.1 0-2-.9-2-2v-16.2c0-1.1.9-2 2-2h18c1.1 0 2 .9 2 2v16.2c0 1.1-.9 2-2 2zm-16-4h14v-12.2h-14v12.2zm115.5 4h-18c-1.1 0-2-.9-2-2v-16.2c0-1.1.9-2 2-2h18c1.1 0 2 .9 2 2v16.2c0 1.1-.9 2-2 2zm-16-4h14v-12.2h-14v12.2zm-50.3 4h-18c-1.1 0-2-.9-2-2v-16.2c0-1.1.9-2 2-2h18c1.1 0 2 .9 2 2v16.2c0 1.1-.9 2-2 2zm-16-4h14v-12.2h-14v12.2zm49.1 4h-18c-1.1 0-2-.9-2-2v-16.2c0-1.1.9-2 2-2h18c1.1 0 2 .9 2 2v16.2c0 1.1-.8 2-2 2zm-16-4h14v-12.2h-14v12.2z"/><path d="M756.6 524.9h-18c-1.1 0-2-.9-2-2v-7.2c0-1.1.9-2 2-2h18c1.1 0 2 .9 2 2v7.2c0 1.1-.9 2-2 2zm-16-4h14v-3.2h-14v3.2zm115.5 4h-18c-1.1 0-2-.9-2-2v-7.2c0-1.1.9-2 2-2h18c1.1 0 2 .9 2 2v7.2c0 1.1-.9 2-2 2zm-16-4h14v-3.2h-14v3.2zm-50.3 4h-18c-1.1 0-2-.9-2-2v-7.2c0-1.1.9-2 2-2h18c1.1 0 2 .9 2 2v7.2c0 1.1-.9 2-2 2zm-16-4h14v-3.2h-14v3.2zm49.1 4h-18c-1.1 0-2-.9-2-2v-7.2c0-1.1.9-2 2-2h18c1.1 0 2 .9 2 2v7.2c0 1.1-.8 2-2 2zm-16-4h14v-3.2h-14v3.2zM756.6 565h-18c-1.1 0-2-.9-2-2v-16.2c0-1.1.9-2 2-2h18c1.1 0 2 .9 2 2V563c0 1.1-.9 2-2 2zm-16-4h14v-12.2h-14V561zm115.5 4h-18c-1.1 0-2-.9-2-2v-16.2c0-1.1.9-2 2-2h18c1.1 0 2 .9 2 2V563c0 1.1-.9 2-2 2zm-16-4h14v-12.2h-14V561zm-50.3 4h-18c-1.1 0-2-.9-2-2v-16.2c0-1.1.9-2 2-2h18c1.1 0 2 .9 2 2V563c0 1.1-.9 2-2 2zm-16-4h14v-12.2h-14V561zm49.1 4h-18c-1.1 0-2-.9-2-2v-16.2c0-1.1.9-2 2-2h18c1.1 0 2 .9 2 2V563c0 1.1-.8 2-2 2zm-16-4h14v-12.2h-14V561z"/><path d="M756.6 572.2h-18c-1.1 0-2-.9-2-2V563c0-1.1.9-2 2-2h18c1.1 0 2 .9 2 2v7.2c0 1.1-.9 2-2 2zm-16-4h14V565h-14v3.2zm115.5 4h-18c-1.1 0-2-.9-2-2V563c0-1.1.9-2 2-2h18c1.1 0 2 .9 2 2v7.2c0 1.1-.9 2-2 2zm-16-4h14V565h-14v3.2zm-50.3 4h-18c-1.1 0-2-.9-2-2V563c0-1.1.9-2 2-2h18c1.1 0 2 .9 2 2v7.2c0 1.1-.9 2-2 2zm-16-4h14V565h-14v3.2zm49.1 4h-18c-1.1 0-2-.9-2-2V563c0-1.1.9-2 2-2h18c1.1 0 2 .9 2 2v7.2c0 1.1-.8 2-2 2zm-16-4h14V565h-14v3.2z"/></g><path d="M723.9 383h-9c-1.1 0-2-.9-2-2v-7.2c0-1.1.9-2 2-2h9c1.1 0 2 .9 2 2v7.2c0 1.1-.9 2-2 2zm-7-4h5v-3.2h-5v3.2zm7 51.3h-9c-1.1 0-2-.9-2-2v-7.2c0-1.1.9-2 2-2h9c1.1 0 2 .9 2 2v7.2c0 1.1-.9 2-2 2zm-7-4h5v-3.2h-5v3.2zm7 98.6h-9c-1.1 0-2-.9-2-2v-7.2c0-1.1.9-2 2-2h9c1.1 0 2 .9 2 2v7.2c0 1.1-.9 2-2 2zm-7-4h5v-3.2h-5v3.2zm7 51.3h-9c-1.1 0-2-.9-2-2V563c0-1.1.9-2 2-2h9c1.1 0 2 .9 2 2v7.2c0 1.1-.9 2-2 2zm-7-4h5V565h-5v3.2zm163-185.2h-9c-1.1 0-2-.9-2-2v-7.2c0-1.1.9-2 2-2h9c1.1 0 2 .9 2 2v7.2c0 1.1-.9 2-2 2zm-7-4h5v-3.2h-5v3.2zm7 51.3h-9c-1.1 0-2-.9-2-2v-7.2c0-1.1.9-2 2-2h9c1.1 0 2 .9 2 2v7.2c0 1.1-.9 2-2 2zm-7-4h5v-3.2h-5v3.2zm7 51.2h-9c-1.1 0-2-.9-2-2v-7.2c0-1.1.9-2 2-2h9c1.1 0 2 .9 2 2v7.2c0 1.1-.9 2-2 2zm-7-4h5v-3.2h-5v3.2zm7 51.4h-9c-1.1 0-2-.9-2-2v-7.2c0-1.1.9-2 2-2h9c1.1 0 2 .9 2 2v7.2c0 1.1-.9 2-2 2zm-7-4h5v-3.2h-5v3.2zm7 51.3h-9c-1.1 0-2-.9-2-2V563c0-1.1.9-2 2-2h9c1.1 0 2 .9 2 2v7.2c0 1.1-.9 2-2 2zm-7-4h5V565h-5v3.2z" fill="#DBDBDB"/><path fill="#F6F6F6" d="M53.5 371.7h154.1v16.6H53.5z"/><path d="M207.6 390.3H53.4c-1.1 0-2-.9-2-2v-16.6c0-1.1.9-2 2-2h154.2c1.1 0 2 .9 2 2v16.6c0 1.1-.9 2-2 2zm-152.2-4h150.2v-12.6H55.4v12.6zm551.5 58.9c-.9 0-1.8-.7-2-1.6-.3-1.3-.5-2.5-.9-3.8-.3-1.1.4-2.2 1.4-2.4 1.1-.3 2.2.4 2.4 1.4.3 1.3.6 2.7.9 4 .2 1.1-.5 2.1-1.6 2.4h-.2zm-283.2-2.1c-2.7 0-5.5-.2-8.3-.7-1.1-.2-1.8-1.2-1.7-2.3.2-1.1 1.2-1.9 2.3-1.7 2.6.4 5.2.6 7.7.6 1.1 0 2 .9 2 2 0 1.2-.9 2.1-2 2.1zm15.8-2.4c-.9 0-1.7-.6-1.9-1.4-.3-1.1.3-2.2 1.3-2.5 2.3-.7 4.7-1.6 7.3-2.7 1-.4 2.2.1 2.6 1.1.4 1-.1 2.2-1.1 2.6-2.8 1.1-5.3 2.1-7.7 2.8-.1 0-.3.1-.5.1zm-39.2-2.4c-.2 0-.5 0-.7-.1-1.7-.6-3.5-1.4-5.3-2.2-.7-.3-1.5-.7-2.2-1-1-.5-1.4-1.7-.9-2.7.5-1 1.7-1.4 2.7-.9l2.1.9c1.8.8 3.5 1.5 5.2 2.1 1 .4 1.6 1.5 1.2 2.6-.5.8-1.3 1.3-2.1 1.3zm61.2-7.1c-.7 0-1.5-.4-1.8-1.1-.5-1-.1-2.2.9-2.7l.9-.4c2-1 4.1-2 6.2-3.1 1-.5 2.2-.1 2.7.9s.1 2.2-.9 2.7c-2.2 1.1-4.3 2.2-6.4 3.2l-.9.4c-.1.1-.4.1-.7.1zm-82.1-4.5c-.4 0-.9-.1-1.2-.4-2.1-1.7-4.2-3.5-6.2-5.4-.8-.8-.8-2-.1-2.8.8-.8 2-.8 2.8-.1 1.9 1.8 3.9 3.6 5.9 5.1.9.7 1 1.9.3 2.8-.3.6-.9.8-1.5.8zm321-.4c-.7 0-1.4-.4-1.8-1.1-1.2-2.3-2.5-4.6-3.9-6.8-.6-.9-.3-2.2.6-2.8.9-.6 2.2-.3 2.8.6 1.5 2.3 2.8 4.7 4.1 7.1.5 1 .1 2.2-.9 2.7-.3.3-.6.3-.9.3zm-217.7-6.4c-.7 0-1.3-.3-1.7-1-.6-.9-.3-2.2.7-2.7 2.2-1.3 4.5-2.7 6.8-4.1.9-.6 2.2-.3 2.8.6.6.9.3 2.2-.6 2.8-2.4 1.5-4.7 2.9-6.9 4.2-.4.1-.7.2-1.1.2zm-119.9-10.5c-.6 0-1.2-.3-1.6-.8-1.6-2.1-3.2-4.3-4.7-6.6-.6-.9-.4-2.2.6-2.8 1-.6 2.2-.4 2.8.6 1.5 2.2 3 4.4 4.5 6.4.7.9.5 2.1-.4 2.8-.3.3-.8.4-1.2.4zM403 407c-.7 0-1.3-.3-1.7-.9-.6-.9-.4-2.2.6-2.8 2.2-1.5 4.5-2.9 6.7-4.4.9-.6 2.2-.4 2.8.6.6.9.4 2.2-.6 2.8-2.2 1.5-4.4 3-6.7 4.4-.3.2-.7.3-1.1.3zm183.5-.1c-.5 0-1-.2-1.4-.6-1.8-1.8-3.7-3.7-5.7-5.4-.8-.7-.9-2-.2-2.8.7-.8 2-.9 2.8-.2 2.1 1.8 4.1 3.7 5.9 5.6.8.8.7 2.1-.1 2.8-.3.4-.8.6-1.3.6zm-163.4-13.1c-.7 0-1.3-.3-1.7-.9-.6-.9-.3-2.2.6-2.8 2.3-1.5 4.6-2.9 7-4.2 1-.5 2.2-.2 2.7.8s.2 2.2-.8 2.7c-2.3 1.3-4.6 2.6-6.7 4.1-.4.2-.8.3-1.1.3zm144.7-1.9c-.4 0-.7-.1-1.1-.3-2.2-1.4-4.5-2.7-6.8-3.9-1-.5-1.4-1.7-.8-2.7.5-1 1.7-1.4 2.7-.8 2.4 1.3 4.8 2.6 7.1 4 .9.6 1.2 1.8.6 2.8-.4.5-1 .9-1.7.9zm-317.7-2.8c-.7 0-1.4-.4-1.8-1.1-1.2-2.2-2.4-4.6-3.6-7.2-.5-1-.1-2.2.9-2.7s2.2-.1 2.7.9c1.3 2.6 2.4 4.9 3.6 7.1.5 1 .1 2.2-.8 2.7-.4.2-.7.3-1 .3zm194.3-6.3c-.8 0-1.5-.5-1.9-1.3-.4-1 .1-2.2 1.1-2.6 2.5-1 5.1-1.9 7.6-2.8 1-.3 2.2.2 2.5 1.3.3 1-.2 2.2-1.3 2.5-2.5.8-5 1.7-7.4 2.7-.1.2-.4.2-.6.2zm101.8-1.4c-.2 0-.5 0-.7-.1-2.4-.9-5-1.7-7.5-2.5-1.1-.3-1.7-1.4-1.3-2.5.3-1.1 1.4-1.7 2.5-1.3 2.6.8 5.2 1.6 7.7 2.6 1 .4 1.6 1.5 1.2 2.6-.3.7-1.1 1.2-1.9 1.2zm-78.9-5.4c-.9 0-1.8-.7-2-1.6-.2-1.1.5-2.1 1.6-2.4 2.6-.5 5.3-1 8-1.4 1.1-.2 2.1.6 2.3 1.7.2 1.1-.6 2.1-1.7 2.3-2.6.4-5.2.9-7.8 1.4-.1-.1-.2 0-.4 0zm55.8-.8h-.4c-2.6-.5-5.2-.9-7.8-1.2-1.1-.1-1.9-1.1-1.7-2.2.2-1.1 1.1-1.9 2.2-1.7 2.7.3 5.4.7 8 1.2 1.1.2 1.8 1.2 1.6 2.3-.2.9-1 1.6-1.9 1.6zm-31.9-2.1c-1.1 0-2-.8-2-1.9 0-1.1.8-2 1.9-2.1 2.7-.1 5.4-.1 8.1-.1 1.1 0 2 .9 2 2s-.9 2-2 2c-2.7-.1-5.3 0-8 .1zm-251.6-5.6c-.8 0-1.5-.4-1.8-1.2-1.1-2.4-2.2-4.8-3.4-7.2-.5-1 0-2.2 1-2.7s2.2 0 2.7 1c1.1 2.4 2.3 4.8 3.4 7.3.5 1 0 2.2-1 2.7-.3 0-.6.1-.9.1zm-10.5-21.6c-.7 0-1.4-.4-1.8-1.1-1.3-2.5-2.6-4.7-3.9-6.9-.6-1-.2-2.2.7-2.7 1-.6 2.2-.2 2.7.7 1.3 2.2 2.6 4.5 4 7.1.5 1 .2 2.2-.8 2.7-.2.1-.6.2-.9.2zm-12.8-20.3c-.6 0-1.2-.3-1.6-.8-1.6-2.1-3.2-4.2-4.9-6.2-.7-.8-.6-2.1.2-2.8.8-.7 2.1-.6 2.8.2 1.7 2.1 3.4 4.2 5 6.4.7.9.5 2.1-.4 2.8-.2.3-.7.4-1.1.4zm-15.9-17.9c-.5 0-1-.2-1.4-.5-1.9-1.8-3.9-3.6-5.9-5.3-.8-.7-1-2-.2-2.8.7-.8 2-1 2.8-.2 2.1 1.7 4.1 3.5 6.1 5.4.8.8.8 2 .1 2.8-.5.4-1 .6-1.5.6zm-18.8-14.9c-.4 0-.8-.1-1.1-.3-2.2-1.4-4.5-2.8-6.7-4.1-1-.5-1.3-1.8-.8-2.7.5-1 1.8-1.3 2.7-.8 2.3 1.3 4.7 2.7 6.9 4.2.9.6 1.2 1.8.6 2.8-.3.6-1 .9-1.6.9zm-21.3-11.1c-.2 0-.5 0-.7-.1-2.4-1-4.9-1.9-7.4-2.7-1.1-.3-1.6-1.5-1.3-2.5.3-1.1 1.5-1.6 2.5-1.3 2.6.8 5.1 1.8 7.6 2.8 1 .4 1.5 1.6 1.1 2.6-.2.7-1 1.2-1.8 1.2zm-98.7 0c-1.2 0-2.4 0-3.6-.1-1.1-.1-1.9-1-1.9-2.1s1-1.9 2.1-1.9c2.5.1 5.1.1 7.7-.1 1.1-.1 2.1.8 2.1 1.9.1 1.1-.8 2.1-1.9 2.1-1.4.1-2.9.2-4.5.2zm20.3-3.1c-.9 0-1.7-.6-1.9-1.4-.3-1.1.3-2.2 1.4-2.5l.3-.1c2.5-.8 5.1-1.4 7.6-2 1.1-.3 2.2.4 2.4 1.5.3 1.1-.4 2.2-1.5 2.4-2.4.6-4.9 1.2-7.4 2l-.3.1h-.6zm-39.3-.3c-.2 0-.5 0-.7-.1-2.7-1.1-5.2-2.4-7.5-3.8-.9-.6-1.2-1.8-.6-2.8.6-.9 1.8-1.2 2.8-.6 2 1.3 4.3 2.5 6.7 3.5 1 .4 1.5 1.6 1.1 2.6-.3.7-1 1.2-1.8 1.2zm94.7-3.2h-.4c-2.6-.5-5.2-.8-7.8-1.1-1.1-.1-1.9-1.1-1.8-2.2.1-1.1 1.1-1.9 2.2-1.8 2.7.3 5.4.7 8.1 1.1 1.1.2 1.8 1.2 1.6 2.3-.1 1-1 1.7-1.9 1.7zm-31.9-1.2c-1 0-1.9-.8-2-1.8-.1-1.1.7-2.1 1.8-2.2 2.7-.3 5.4-.5 8.1-.5 1.1 0 2 .8 2.1 1.9.1 1.1-.8 2-1.9 2.1-2.6.1-5.2.3-7.8.5h-.3zM24.7 263c-.7 0-1.4-.4-1.8-1.1-1.3-2.5-2.3-5.1-3-7.9-.3-1.1.4-2.2 1.5-2.4 1.1-.3 2.2.4 2.4 1.5.6 2.5 1.5 4.8 2.7 7 .5 1 .2 2.2-.8 2.7-.4.1-.7.2-1 .2zm-2.9-23.3c-.2 0-.4 0-.6-.1-1.1-.3-1.7-1.4-1.3-2.5.8-2.6 2-5.2 3.7-7.7.6-.9 1.8-1.2 2.8-.6.9.6 1.2 1.8.6 2.8-1.4 2.2-2.5 4.5-3.2 6.7-.4.9-1.2 1.4-2 1.4zM36.2 221c-.6 0-1.2-.3-1.6-.8-.7-.9-.6-2.1.3-2.8 2-1.6 4.2-3.2 6.6-4.8.9-.6 2.2-.4 2.8.6.6.9.4 2.2-.6 2.8-2.3 1.5-4.4 3.1-6.3 4.6-.4.2-.8.4-1.2.4zm20.4-12.5c-.8 0-1.5-.4-1.8-1.2-.5-1 0-2.2 1-2.6 2.3-1.1 4.8-2.1 7.5-3.1 1-.4 2.2.1 2.6 1.2.4 1-.1 2.2-1.2 2.6-2.6 1-5 2-7.3 3-.2 0-.5.1-.8.1zm22.7-8.3c-.8 0-1.6-.5-1.9-1.4-.3-1.1.3-2.2 1.3-2.5 1.3-.4 2.6-.8 3.8-1.2 1.1-.3 2.2.3 2.5 1.3.3 1.1-.3 2.2-1.3 2.5-1.3.4-2.5.8-3.8 1.2-.2.1-.4.1-.6.1z" fill="#DBDBDB"/><g fill="#DBDBDB"><path d="M120.6 199.6c-.5 0-.9-.2-1.3-.5l-10.1-10.6-7.6 7.1c-.5.5-1.3.6-2 .3s-1-1-.9-1.8l2-15.3-5.5-7c-.5-.6-.5-1.4-.1-2 .4-.6 1.1-1 1.8-.8l44.6 7.7c.7.1 1.2.6 1.4 1.2.2.6 0 1.3-.5 1.8l-20.5 19.4c-.5.3-.9.5-1.3.5zm-11.3-15.4c.5 0 .9.2 1.3.5l10.1 10.6 16.7-15.8-36.6-6.4 3.1 3.9c.3.4.4.8.4 1.3l-1.4 11.2 5.3-4.9c.3-.2.7-.4 1.1-.4z"/><path d="M100.5 196c-.8 0-1.5-.6-1.7-1.4-.2-.9.4-1.9 1.3-2.1l13.8-3c.9-.2 1.9.4 2.1 1.3.2.9-.4 1.9-1.3 2.1l-13.8 3c-.2.1-.3.1-.4.1zm8.8-8.3c-.8 0-1.5-.5-1.7-1.3-.2-.9.4-1.9 1.3-2.1l17.6-4.2-23.9-.1c-1 0-1.7-.8-1.7-1.8s.8-1.7 1.8-1.7l38.6.2c.9 0 1.6.7 1.7 1.6.1.9-.5 1.7-1.3 1.9l-31.8 7.6c-.3-.1-.4-.1-.6-.1z"/></g><g fill="#DBDBDB"><path d="M130.1 90c-3.7-4.3-11.8-5.6-16.2-1.7-.9-3.5-2.8-6.5-5.9-8.7-3.3-2.3-7.8-2.6-11.5-1-.5-6.1-5.5-10.8-12.1-10.4-5.6.3-10.4 5.7-10.3 11.2-.1 0-.2-.1-.3-.1-2.4-1-4.8-.8-7.1.2s-4.2 3.7-4.6 6.4c-.6-.4-1.2-.8-1.7-1-2.5-1.4-5.4-1.6-8.1-1.1-4.4.9-7 5.3-6.3 9.5-4.5-.3-11.5 1.1-10.9 6.3.5 5.1 3.6 5.5 13.2 5.5h32.4c14.2 0 43 .2 43.4.2 7.7-.4 10.8-9.8 6-15.3zm-6.1 12.2l-43.2.1H48.4c-2.8 0-7.4.1-7.6.1-3-.5-3-3.9-1.9-5.1 2.1-2.2 6.2-1.5 8.8-1.1 1.2.2 2.1-.9 1.5-2-2-4.2 1.9-7.6 5.9-7.8 2-.1 3.8.8 5.5 1.8.7.5 3 3.2 4 3.8.6.4 1.2-.2 1.1-.8-.3-1.8-1-3.4-.7-5.3.3-1.9 1.7-3.2 3.3-4.1 1.7-.9 3.7-.5 5.3.3.9.5 1.4 1.2 2.2 1.6.1.1.2.1.3.1.2.1.3.1.5.2.4.1.9-.1 1-.6.1-.6 0-1.1-.2-1.6-.5-5.2 1.4-10.2 7.3-11 5.5-.7 10 4.3 9.3 9.7-.1 1 .9 2.4 2 1.6 3.1-2.3 6.8-2.5 10.1-.7 3.7 2 5.5 6.4 5.6 10.4.1 1.6 2.2 1.9 2.7.4 1.7-5 9.4-4.2 12.6-1.5 4.2 3.5 2 11.5-3 11.5z"/><path d="M124 105.7h-6.5c-8.7 0-25-.1-35.2-.1h-34c-9.7 0-13.1-.5-13.7-6-.2-1.5.3-2.8 1.2-3.9 2.1-2.4 6.5-3.1 9.6-3-.5-4.4 2.5-8.5 6.8-9.4 3.1-.6 6-.3 8.5 1.1.3.2.7.4 1.1.7.7-2.7 2.5-5.1 4.8-6.1 2.5-1.1 4.8-1.2 7.1-.4.3-5.5 5.2-10.6 10.7-11 6.4-.4 11.6 4 12.5 10.2 1.4-.5 3-.8 4.5-.8 2.5 0 4.9.7 6.8 2.1 2.8 2 4.9 4.9 5.9 8.2 1.7-1.2 3.9-1.9 6.4-1.9 3.9 0 7.6 1.6 9.9 4.2 2.5 2.9 3.1 7 1.6 10.5-1.4 3.3-4.4 5.3-7.9 5.5l-.1.1zm-41.7-1.2c10.2 0 26.5.1 35.2.1h6.6c3.1-.1 5.8-1.9 7-4.9 1.4-3.2.8-6.9-1.4-9.5-2-2.3-5.6-3.8-9.1-3.8-2.5 0-4.8.8-6.3 2.2l-.6.5-.2-.8c-.9-3.4-2.8-6.3-5.7-8.4-1.7-1.2-3.9-1.9-6.2-1.9-1.6 0-3.3.3-4.8 1l-.6.3-.1-.7c-.5-6-5.4-10.4-11.5-10-5.3.3-10 5.4-9.8 10.7v.8l-1-.4c-2.2-.9-4.4-.8-6.8.2-2.1.9-3.9 3.4-4.3 6.1l-.1.8-.6-.4c-.6-.4-1.2-.7-1.7-1-2.2-1.3-5-1.6-7.8-1-4 .8-6.6 4.8-5.9 8.9l.1.6h-1.8c-2.8 0-6.4.7-8.2 2.6-.8.9-1.1 1.9-1 3.1.5 4.6 3 5.1 12.7 5.1h32.4l1.5-.2zm-41.2-1.6h-.5c-1.4-.3-2.4-1.1-2.8-2.4-.4-1.3-.1-2.8.6-3.6 1.1-1.1 2.7-1.7 4.9-1.7 1.4 0 2.9.2 4.1.4h.3c.4.1.8-.1 1-.4.2-.3.2-.6 0-.9-1.1-2.2-.5-4 .1-5.1 1.2-2 3.6-3.3 6.2-3.5 2.2-.1 4.2.9 5.8 1.9.4.3 1.1 1 1.9 1.9.8.8 1.6 1.7 2 2h.2c.1-.1.1-.2.1-.3-.1-.5-.2-.9-.3-1.4-.3-1.3-.6-2.6-.4-4.1.4-2.3 2.1-3.6 3.5-4.4 1.6-.9 3.7-.8 5.8.3.5.3.9.6 1.3 1 .3.3.6.5.9.7.1.1.1.1.2.1.2.1.4.1.5.2.2 0 .4-.1.4-.1.1-.4 0-.9-.2-1.3V82c-.5-5 1.2-10.7 7.7-11.5 2.8-.4 5.7.7 7.6 2.9 1.8 2 2.6 4.7 2.2 7.3 0 .3.1.7.3 1 .1.2.5.4.9.1 3.1-2.3 7.1-2.6 10.7-.7 4.1 2.1 5.7 7 5.9 10.8 0 .6.5.9.9.9.2 0 .7 0 .9-.7.9-2.5 3.3-4 6.6-4 2.5 0 5.2.9 6.8 2.2 2.6 2.1 2.9 5.6 2 8.1-.9 2.6-2.9 4.2-5.3 4.2l-43.2.1H43.5c-1 .2-1.9.2-2.4.2zm2.2-6.7c-1.9 0-3.3.4-4.1 1.4-.5.5-.7 1.6-.4 2.6.2.6.7 1.5 2 1.7h40l43.2-.1c2.3 0 3.7-1.8 4.3-3.5.8-2.2.6-5.2-1.6-7-1.5-1.2-3.9-2-6.2-2-1.4 0-4.6.3-5.6 3.3-.3.8-1 1.3-1.8 1.3-.9 0-1.8-.6-1.9-1.8-.2-3.6-1.6-8.1-5.4-10-3.2-1.7-6.8-1.4-9.6.7-.7.6-1.7.4-2.3-.3-.4-.5-.6-1.2-.6-1.8.3-2.3-.4-4.7-2-6.5-1.7-2-4.2-2.9-6.7-2.6-7.2 1-7.1 8.1-6.9 10.4.3.6.3 1.2.2 1.8-.1.8-1 1.1-1.6 1-.2 0-.4-.1-.6-.2-.1 0-.2-.1-.3-.2-.4-.2-.7-.5-1-.8-.4-.3-.7-.6-1.1-.8-1.7-.9-3.5-1-4.8-.3-1.2.7-2.7 1.8-3 3.7-.2 1.3.1 2.5.3 3.7.1.5.2.9.3 1.4.1.4 0 .8-.3 1.1-.4.5-1 .6-1.5.2-.5-.4-1.4-1.2-2.2-2.1-.7-.7-1.4-1.5-1.7-1.7-1.5-.9-3.3-1.8-5.2-1.7-2.2.1-4.4 1.3-5.4 3-.7 1.3-.8 2.7-.1 4.1.3.6.3 1.3-.1 1.9-.4.6-1.2 1-2 .8h-.3c-1.2-.5-2.6-.7-4-.7zm878.4 180.7c-3.7-4.3-11.8-5.6-16.2-1.7-.9-3.5-2.8-6.5-5.9-8.7-3.3-2.3-7.8-2.6-11.5-1-.5-6.1-5.5-10.8-12.1-10.4-5.6.3-10.4 5.7-10.3 11.2-.1 0-.2-.1-.3-.1-2.4-1-4.8-.8-7.1.2s-4.2 3.7-4.6 6.4c-.6-.4-1.2-.8-1.7-1-2.5-1.4-5.4-1.6-8.1-1.1-4.4.9-7 5.3-6.3 9.5-4.5-.3-11.5 1.1-10.9 6.3.5 5.1 3.6 5.5 13.2 5.5h32.4c14.2 0 43 .2 43.4.2 7.7-.5 10.8-9.8 6-15.3zm-6.1 12.2l-43.2.1H840c-2.8 0-7.4.1-7.6.1-3-.5-3-3.9-1.9-5.1 2.1-2.2 6.2-1.5 8.8-1.1 1.2.2 2.1-.9 1.5-2-2-4.2 1.9-7.6 5.9-7.8 2-.1 3.8.8 5.5 1.8.7.5 3 3.2 4 3.8.6.4 1.2-.2 1.1-.8-.3-1.8-1-3.4-.7-5.3.3-1.9 1.7-3.2 3.3-4.1 1.7-.9 3.7-.5 5.3.3.9.5 1.4 1.2 2.2 1.6.1.1.2.1.3.1.2.1.3.1.5.2.4.1.9-.1 1-.6.1-.6 0-1.1-.2-1.6-.5-5.2 1.4-10.2 7.3-11 5.5-.7 10 4.3 9.3 9.7-.1 1 .9 2.4 2 1.6 3.1-2.3 6.8-2.5 10.1-.7 3.7 2 5.5 6.4 5.6 10.4.1 1.6 2.2 1.9 2.7.4 1.7-5 9.4-4.2 12.6-1.5 4.2 3.5 2.1 11.5-3 11.5z"/><path d="M915.6 292.6h-6.5c-8.7 0-25-.1-35.2-.1h-34c-9.7 0-13.1-.5-13.7-6-.2-1.5.3-2.8 1.2-3.9 2.1-2.4 6.5-3.1 9.6-3-.5-4.4 2.5-8.5 6.8-9.4 3.1-.6 6-.3 8.5 1.1.3.2.7.4 1.1.7.7-2.7 2.5-5.1 4.8-6.1 2.5-1.1 4.8-1.2 7.1-.4.3-5.5 5.2-10.6 10.7-11 6.4-.4 11.6 4 12.5 10.2 1.4-.5 3-.8 4.5-.8 2.5 0 4.9.7 6.8 2.1 2.8 2 4.9 4.9 5.9 8.2 1.7-1.2 3.9-1.9 6.4-1.9 3.9 0 7.6 1.6 9.9 4.2 2.5 2.9 3.1 7 1.6 10.5-1.4 3.3-4.4 5.3-7.9 5.5l-.1.1zm-41.6-1.2c10.2 0 26.5.1 35.2.1h6.6c3.1-.1 5.8-1.9 7-4.9 1.4-3.2.8-6.9-1.4-9.5-2-2.3-5.6-3.8-9.1-3.8-2.5 0-4.8.8-6.3 2.2l-.6.5-.2-.8c-.9-3.4-2.8-6.3-5.7-8.4-1.7-1.2-3.9-1.9-6.2-1.9-1.6 0-3.3.3-4.8 1l-.6.3-.1-.7c-.5-6-5.4-10.4-11.5-10-5.3.3-10 5.4-9.8 10.7v.8l-.7-.3c-.1 0-.2-.1-.2-.1-2.2-.9-4.4-.8-6.8.2-2.1.9-3.9 3.4-4.3 6.1l-.1.8-.6-.4c-.6-.4-1.2-.7-1.7-1-2.2-1.3-5-1.6-7.8-1-4 .8-6.6 4.8-5.9 8.9l.1.6h-1.8c-2.8 0-6.4.7-8.2 2.6-.8.9-1.1 1.9-1 3.1.5 4.6 3 5.1 12.7 5.1h32.4l1.4-.2zm-41.3-1.6h-.4c-1.4-.3-2.4-1.1-2.8-2.4-.4-1.3-.1-2.8.6-3.6 1.1-1.1 2.7-1.7 4.9-1.7 1.4 0 2.9.2 4.1.4h.3c.4.1.8-.1 1-.4.2-.3.2-.6 0-.9-1.1-2.2-.5-4 .1-5.1 1.2-2 3.6-3.3 6.2-3.5 2.2-.1 4.2.9 5.8 1.9.4.3 1.1 1 1.9 1.9.8.8 1.6 1.7 2 2h.2c.1-.1.1-.2.1-.3-.1-.5-.2-.9-.3-1.4-.3-1.3-.6-2.6-.4-4.1.4-2.3 2.1-3.6 3.5-4.4 1.6-.9 3.7-.8 5.8.3.5.3.9.6 1.3 1 .3.3.6.5.9.7.1.1.1.1.2.1.2.1.4.1.5.2.2 0 .4-.1.4-.1.1-.4 0-.9-.2-1.3v-.2c-.5-5 1.2-10.7 7.7-11.5 2.8-.4 5.7.7 7.6 2.9 1.8 2 2.6 4.7 2.2 7.3 0 .3.1.7.3 1 .1.2.5.4.9.1 3.1-2.3 7.1-2.6 10.7-.7 4.1 2.1 5.7 7 5.9 10.8 0 .6.5.9.9.9.2 0 .7 0 .9-.7.9-2.5 3.3-4 6.6-4 2.5 0 5.2.9 6.8 2.2 2.6 2.1 2.9 5.6 2 8.1-.9 2.6-2.9 4.2-5.3 4.2l-43.2.1h-37.2c-1.1.2-2 .2-2.5.2zm2.3-6.7c-1.9 0-3.3.4-4.1 1.4-.5.5-.7 1.6-.4 2.6.2.6.7 1.5 2 1.7h39.9l43.2-.1c2.3 0 3.7-1.8 4.3-3.5.8-2.2.6-5.2-1.6-7-1.5-1.2-3.9-2-6.2-2-1.4 0-4.6.3-5.6 3.3-.3.8-1 1.3-1.8 1.3-.9 0-1.8-.6-1.9-1.8-.2-3.6-1.6-8.1-5.4-10-3.2-1.7-6.8-1.4-9.6.7-.7.6-1.7.4-2.3-.3-.4-.5-.6-1.2-.6-1.8.3-2.3-.4-4.7-2-6.5-1.7-2-4.2-2.9-6.7-2.6-7.2 1-7.1 8.1-6.9 10.4.3.6.3 1.2.2 1.8-.1.8-1 1.1-1.6 1-.2 0-.4-.1-.6-.2-.1 0-.2-.1-.3-.2-.4-.2-.7-.5-1-.8-.4-.3-.7-.6-1.1-.8-1.7-.9-3.5-1-4.8-.3-1.2.7-2.7 1.8-3 3.7-.2 1.3.1 2.5.3 3.7.1.5.2.9.3 1.4.1.4 0 .8-.3 1.1-.4.5-1 .6-1.5.2-.5-.4-1.4-1.2-2.2-2.1-.7-.7-1.4-1.5-1.7-1.7-1.5-.9-3.3-1.8-5.2-1.7-2.2.1-4.4 1.3-5.4 3-.7 1.3-.8 2.7-.1 4.1.3.6.3 1.3-.1 1.9-.4.6-1.2 1-2 .8h-.3c-1.1-.5-2.6-.7-3.9-.7zM700.5 62.2c-3.7-4.3-11.8-5.6-16.2-1.7-.9-3.5-2.8-6.5-5.9-8.7-3.3-2.3-7.8-2.6-11.5-1-.5-6.1-5.5-10.8-12.1-10.4-5.6.3-10.4 5.7-10.3 11.2-.1 0-.2-.1-.3-.1-2.4-1-4.8-.8-7.1.2s-4.2 3.7-4.6 6.4c-.6-.4-1.2-.8-1.7-1-2.5-1.4-5.4-1.6-8.1-1.1-4.4.9-7 5.3-6.3 9.5-4.5-.3-11.5 1.1-10.9 6.3.5 5.1 3.6 5.5 13.2 5.5h32.4c14.2 0 43 .2 43.4.2 7.7-.4 10.8-9.7 6-15.3zm-6.1 12.3l-43.2.1h-32.4c-2.8 0-7.4.1-7.6.1-3-.5-3-3.9-1.9-5.1 2.1-2.2 6.2-1.5 8.8-1.1 1.2.2 2.1-.9 1.5-2-2-4.2 1.9-7.6 5.9-7.8 2-.1 3.8.8 5.5 1.8.7.5 3 3.2 4 3.8.6.4 1.2-.2 1.1-.8-.3-1.8-1-3.4-.7-5.3.3-1.9 1.7-3.2 3.3-4.1 1.7-.9 3.7-.5 5.3.3.9.5 1.4 1.2 2.2 1.6.1.1.2.1.3.1.2.1.3.1.5.2.4.1.9-.1 1-.6.1-.6 0-1.1-.2-1.6-.5-5.2 1.4-10.2 7.3-11 5.5-.7 10 4.3 9.3 9.7-.1 1 .9 2.4 2 1.6 3.1-2.3 6.8-2.5 10.1-.7 3.7 2 5.5 6.4 5.6 10.4.1 1.6 2.2 1.9 2.7.4 1.7-5 9.4-4.2 12.6-1.5 4.2 3.5 2.1 11.5-3 11.5z"/><path d="M694.4 77.9h-6.5c-8.7 0-25-.1-35.2-.1h-34c-9.7 0-13.1-.5-13.7-6-.2-1.5.3-2.8 1.2-3.9 2-2.2 5.9-3 8.9-3h.7c-.5-4.4 2.5-8.5 6.8-9.4 3.1-.6 6-.3 8.5 1.1.3.2.7.4 1.1.7.7-2.7 2.5-5.1 4.8-6.1 2.5-1.1 4.8-1.2 7.1-.4.3-5.5 5.2-10.6 10.7-11 6.4-.4 11.6 4 12.5 10.2 1.4-.5 3-.8 4.5-.8 2.5 0 4.9.7 6.8 2.1 2.8 2 4.9 4.9 5.9 8.2 1.7-1.2 3.9-1.9 6.4-1.9 3.9 0 7.6 1.6 9.9 4.2 2.5 2.9 3.1 7 1.6 10.5-1.4 3.3-4.4 5.3-7.9 5.5l-.1.1zm-41.6-1.2c10.2 0 26.5.1 35.2.1h6.6c3.1-.1 5.8-1.9 7-4.9 1.4-3.2.8-6.9-1.4-9.5-2-2.3-5.6-3.8-9.1-3.8-2.5 0-4.8.8-6.3 2.2l-.6.5-.2-.8c-.9-3.4-2.8-6.3-5.7-8.4-1.7-1.2-3.9-1.9-6.2-1.9-1.6 0-3.3.3-4.8 1l-.6.3-.1-.7c-.5-6-5.4-10.4-11.5-10-5.3.3-10 5.4-9.8 10.7v.8l-.7-.3c-.1 0-.2-.1-.2-.1-2.2-.9-4.4-.8-6.8.2-2.1.9-3.9 3.4-4.3 6.1l-.3.8-.6-.4c-.6-.4-1.2-.7-1.7-1-2.2-1.3-5-1.6-7.8-1-4 .8-6.6 4.8-5.9 8.9l.1.6h-1.8c-2.8 0-6.4.7-8.2 2.6-.8.9-1.1 1.9-1 3.1.5 4.6 3 5.1 12.7 5.1h32.4l1.6-.2zm-41.3-1.6h-.5c-1.4-.3-2.4-1.1-2.8-2.4-.4-1.3-.1-2.8.6-3.6 1.1-1.1 2.7-1.7 4.9-1.7 1.4 0 2.9.2 4.1.4h.3c.4.1.8-.1 1-.4.2-.3.2-.6 0-.9-1.1-2.2-.5-4 .1-5.1 1.2-2 3.6-3.3 6.2-3.5 2.2-.1 4.2.9 5.8 1.9.4.3 1.1 1 1.9 1.9.8.8 1.6 1.7 2 2h.2c.1-.1.1-.2.1-.3-.1-.5-.2-.9-.3-1.4-.3-1.3-.6-2.6-.4-4.1.4-2.3 2.1-3.6 3.5-4.4 1.6-.9 3.7-.8 5.8.3.5.3.9.6 1.3 1 .3.3.6.5.9.7.1.1.1.1.2.1.2.1.4.1.5.2.2 0 .4-.1.4-.1.1-.4 0-.9-.2-1.3v-.2c-.5-5 1.2-10.7 7.7-11.5 2.8-.4 5.7.7 7.6 2.9 1.8 2 2.6 4.7 2.2 7.3 0 .3.1.7.3 1 .1.2.5.4.9.1 3.1-2.3 7.1-2.6 10.7-.7 4.1 2.1 5.7 7 5.9 10.8 0 .6.5.9.9.9.2 0 .7 0 .9-.7.9-2.5 3.3-4 6.6-4 2.5 0 5.2.9 6.8 2.2 2.6 2.1 2.9 5.6 2 8.1-.9 2.6-2.9 4.2-5.3 4.2l-43.1.2H614c-1.1.1-2 .1-2.5.1zm-1.8-5.3c-.5.5-.7 1.6-.4 2.6.2.6.7 1.5 2 1.7h40l43.2-.1c2.3 0 3.7-1.8 4.3-3.5.8-2.2.6-5.2-1.6-7-1.5-1.2-3.9-2-6.2-2-1.4 0-4.6.3-5.6 3.3-.3.8-1 1.3-1.8 1.3-.9 0-1.8-.6-1.9-1.8-.2-3.6-1.6-8.1-5.4-10-3.2-1.7-6.8-1.4-9.6.7-.7.6-1.7.4-2.3-.3-.4-.5-.6-1.2-.6-1.8.3-2.3-.4-4.7-2-6.5-1.7-2-4.2-2.9-6.7-2.6-7.2 1-7.1 8.1-6.9 10.4.3.6.3 1.2.2 1.8-.1.8-1 1.1-1.6 1-.2 0-.4-.1-.6-.2-.1 0-.2-.1-.3-.2-.4-.2-.7-.5-1-.8-.4-.3-.7-.6-1.1-.8-1.7-.9-3.5-1-4.8-.3-1.2.7-2.7 1.8-3 3.7-.2 1.3.1 2.5.3 3.7.1.5.2.9.3 1.4.1.4 0 .8-.3 1.1-.4.5-1 .6-1.5.2-.5-.4-1.4-1.2-2.2-2.1-.7-.7-1.4-1.5-1.7-1.7-1.5-.9-3.3-1.8-5.2-1.7-2.2.1-4.4 1.3-5.4 3-.7 1.3-.8 2.7-.1 4.1.3.6.3 1.3-.1 1.9-.4.6-1.2 1-2 .8h-.3c-1.2-.4-2.7-.7-4-.7-1.9 0-3.3.4-4.1 1.4z"/></g><path d="M17.7 462.9c0 14.4 14.2 26.1 31.8 26.1 6.3 0 12.2-1.5 17.2-4.2l11.6 4.2-5.6-8.3c5.3-4.7 8.5-10.9 8.5-17.8 0-14.4-14.2-26.1-31.8-26.1s-31.7 11.7-31.7 26.1z" fill="#FFF"/><path d="M81.4 458.6c-1.9-7.7-4.1-13.6-11.8-17.3-2.2-1-4.8 1.8-2.7 3.5 6.4 5.2 9.9 11.6 7.9 20.2-4.4 19.6-34.3 19.6-39.8 18-1.4-.4 2.9 4.3 4.2 4.8 8.1 3.6 19.5 0 27.8-3.9 2.1 2.1 6.4 1.3 6.2-2.3-.2-3.2 5.6-9 7-11.9 1.4-3.2 2.1-7.7 1.2-11.1z" fill="#F5F5F5"/><path d="M78.4 491c-.2 0-.5 0-.7-.1L66.9 487c-5.2 2.6-11.2 4-17.4 4-18.6 0-33.8-12.6-33.8-28.1 0-15.5 15.2-28.1 33.8-28.1 18.6 0 33.8 12.6 33.8 28.1 0 6.7-2.8 13-7.9 18.1l4.5 6.7c.3.4.5.8.5 1.3 0 1.1-.9 2-2 2zm-28.9-52.2c-16.4 0-29.8 10.8-29.8 24.1S33.1 487 49.5 487c5.8 0 11.4-1.4 16.3-3.9.5-.3 1.1-.3 1.6-.1l5.9 2.1-2.2-3.3c-.6-.8-.4-2 .3-2.6 5.1-4.5 7.9-10.3 7.9-16.3 0-13.3-13.4-24.1-29.8-24.1z" fill="#DBDBDB"/><path d="M35 466.1c-1.7 0-3.2-1.4-3.2-3.2 0-1.8 1.4-3.2 3.2-3.2 1.8 0 3.2 1.4 3.2 3.2 0 1.8-1.4 3.2-3.2 3.2zm0-4c-.5 0-.8.4-.8.8s.4.8.8.8.8-.4.8-.8-.3-.8-.8-.8zm13.8 4c-1.7 0-3.2-1.4-3.2-3.2 0-1.8 1.4-3.2 3.2-3.2 1.7 0 3.2 1.4 3.2 3.2 0 1.8-1.5 3.2-3.2 3.2zm0-4c-.5 0-.8.4-.8.8s.4.8.8.8c.5 0 .8-.4.8-.8s-.3-.8-.8-.8zm13.8 4c-1.7 0-3.2-1.4-3.2-3.2 0-1.8 1.4-3.2 3.2-3.2 1.7 0 3.2 1.4 3.2 3.2 0 1.8-1.5 3.2-3.2 3.2zm0-4c-.5 0-.8.4-.8.8s.4.8.8.8c.5 0 .8-.4.8-.8s-.3-.8-.8-.8z" fill="#DBDBDB"/><g><path d="M315.7 443.1c0 14.4 14.2 26.1 31.8 26.1 6.3 0 12.2-1.5 17.2-4.2l11.6 4.2-5.6-8.3c5.3-4.7 8.5-10.9 8.5-17.8 0-14.4-14.2-26.1-31.8-26.1-17.5 0-31.7 11.7-31.7 26.1z" fill="#FFF"/><path d="M379.4 438.8c-1.9-7.7-4.1-13.6-11.8-17.3-2.2-1-4.8 1.8-2.7 3.5 6.4 5.2 9.9 11.6 7.9 20.2-4.4 19.6-34.3 19.6-39.8 18-1.4-.4 2.9 4.3 4.2 4.8 8.1 3.6 19.5 0 27.8-3.9 2.1 2.1 6.4 1.3 6.2-2.3-.2-3.2 5.6-9 7-11.9 1.4-3.2 2-7.7 1.2-11.1z" fill="#F5F5F5"/><path d="M376.3 471.2c-.2 0-.5 0-.7-.1l-10.8-3.9c-5.2 2.6-11.2 4-17.4 4-18.6 0-33.8-12.6-33.8-28.1 0-15.5 15.2-28.1 33.8-28.1 18.6 0 33.8 12.6 33.8 28.1 0 6.7-2.8 13-7.9 18.1l4.5 6.7c.3.4.5.8.5 1.3 0 1.1-.9 2-2 2zM347.5 419c-16.4 0-29.8 10.8-29.8 24.1s13.4 24.1 29.8 24.1c5.8 0 11.4-1.4 16.3-3.9.5-.3 1.1-.3 1.6-.1l5.9 2.1-2.2-3.3c-.6-.8-.4-2 .3-2.6 5.1-4.5 7.9-10.3 7.9-16.3 0-13.3-13.4-24.1-29.8-24.1z" fill="#DBDBDB"/><path d="M342 438.9c.4.3.7.7 1.1 1l2.1 2.1c.7.7 1.219 1.262 1.219 1.262l6.781-9.762c.6-.9 1.9-1.1 2.8-.5.8.6 1.1 1.7.6 2.6l-7.5 14.1c-.7 1.4-2.5 1.9-3.8 1.2-.4-.2-.7-.4-.9-.8l-.3-.4c-.4-.8-.8-1.6-1.3-2.3-.5-.8-.9-1.5-1.5-2.3-.5-.8-1-1.5-1.6-2.2-.3-.4-.5-.7-.8-1.1-.3-.4-.5-.7-.8-1.1-.7-.8-.6-2.1.2-2.8.8-.7 1.8-.7 2.6 0 .4.3.8.7 1.1 1z" fill="#DBDBDB"/></g><g><path d="M927.3 511.3c0 14.4-14.2 26.1-31.8 26.1-6.3 0-12.2-1.5-17.2-4.2l-11.6 4.2 5.6-8.3c-5.3-4.7-8.5-10.9-8.5-17.8 0-14.4 14.2-26.1 31.8-26.1s31.7 11.7 31.7 26.1z" fill="#FFF"/><path d="M875.4 489.7c2.2-1 4.8 1.8 2.7 3.5-6.4 5.2-9.9 11.6-7.9 20.2 4.4 19.6 34.3 19.6 39.8 18 1.4-.4-2.9 4.3-4.2 4.8-8.1 3.6-19.5 0-27.8-3.9-2.1 2.1-6.4 1.3-6.2-2.3.2-3.2-5.6-9-7-11.9-1.4-3.2-2.1-7.7-1.2-11.1 1.9-7.7 4.1-13.6 11.8-17.3z" fill="#F5F5F5" opacity=".55"/><path d="M866.6 539.5c-.6 0-1.2-.3-1.6-.8-.5-.7-.6-1.6-.1-2.3l4.6-6.9c-5.1-5.1-7.9-11.4-7.9-18.1 0-15.5 15.2-28.1 33.8-28.1 18.6 0 33.8 12.6 33.8 28.1 0 15.5-15.2 28.1-33.8 28.1-6.1 0-12.1-1.4-17.4-4l-10.8 3.9c-.1 0-.3.1-.6.1zm11.7-8.2c.3 0 .6.1.9.2 4.8 2.6 10.5 3.9 16.3 3.9 16.4 0 29.8-10.8 29.8-24.1s-13.4-24.1-29.8-24.1-29.8 10.8-29.8 24.1c0 6.1 2.8 11.8 7.9 16.3.8.7.9 1.8.3 2.6l-2.2 3.3 5.9-2.1c.2-.1.4-.1.7-.1z" fill="#DBDBDB"/><path d="M887.3 508.6c-3.3 0-6.1-2.7-6.1-6.1 0-3.4 2.7-6.1 6.1-6.1 3.4 0 6.1 2.7 6.1 6.1 0 3.4-2.8 6.1-6.1 6.1zm0-8.1c-1.1 0-2.1.9-2.1 2.1 0 1.2.9 2.1 2.1 2.1 1.2 0 2.1-.9 2.1-2.1 0-1.2-1-2.1-2.1-2.1zm16.4 24.6c-3.3 0-6.1-2.7-6.1-6.1 0-3.4 2.7-6.1 6.1-6.1 3.4 0 6.1 2.7 6.1 6.1 0 3.4-2.7 6.1-6.1 6.1zm0-8.2c-1.1 0-2.1.9-2.1 2.1 0 1.1.9 2.1 2.1 2.1 1.1 0 2.1-.9 2.1-2.1 0-1.2-.9-2.1-2.1-2.1zm-15.7 8.9c-.3 0-.7-.1-1-.2-1-.5-1.3-1.7-.8-2.7l14.8-27c.5-1 1.7-1.3 2.7-.8 1 .5 1.3 1.7.8 2.7l-14.8 27c-.3.6-1 1-1.7 1z" fill="#DBDBDB"/></g><g><path d="M689.7 415.6c0 14.4-14.2 26.1-31.8 26.1-6.3 0-12.2-1.5-17.2-4.2l-11.6 4.2 5.6-8.3c-5.3-4.7-8.5-10.9-8.5-17.8 0-14.4 14.2-26.1 31.8-26.1s31.7 11.7 31.7 26.1z" fill="#FFF"/><path d="M637.8 394c2.2-1 4.8 1.8 2.7 3.5-6.4 5.2-9.9 11.6-7.9 20.2 4.4 19.6 34.3 19.6 39.8 18 1.4-.4-2.9 4.3-4.2 4.8-8.1 3.6-19.5 0-27.8-3.9-2.1 2.1-6.4 1.3-6.2-2.3.2-3.2-5.6-9-7-11.9-1.4-3.2-2.1-7.7-1.2-11.1 1.9-7.7 4.1-13.6 11.8-17.3z" fill="#F5F5F5"/><path d="M629 443.7c-.6 0-1.2-.3-1.6-.8-.5-.7-.6-1.6-.1-2.3l4.6-6.9c-5.1-5.1-7.9-11.4-7.9-18.1 0-15.5 15.2-28.1 33.8-28.1 18.6 0 33.8 12.6 33.8 28.1 0 15.5-15.2 28.1-33.8 28.1-6.1 0-12.1-1.4-17.4-4l-10.8 3.9c-.1.1-.3.1-.6.1zm11.7-8.1c.3 0 .6.1.9.2 4.8 2.6 10.5 3.9 16.3 3.9 16.4 0 29.8-10.8 29.8-24.1s-13.4-24.1-29.8-24.1-29.8 10.8-29.8 24.1c0 6.1 2.8 11.8 7.9 16.3.8.7.9 1.8.3 2.6l-2.2 3.3 5.9-2.1c.2-.1.4-.1.7-.1z" fill="#DBDBDB"/><path d="M672.7 427.3h-5.8c-1.1 0-2-.9-2-2v-12c0-1.1.9-2 2-2h5.8c1.1 0 2 .9 2 2v12c0 1.1-.9 2-2 2zm-3.8-4h1.8v-8h-1.8v8zm-7.9 4h-5.8c-1.1 0-2-.9-2-2v-16.5c0-1.1.9-2 2-2h5.8c1.1 0 2 .9 2 2v16.5c0 1.1-.9 2-2 2zm-3.8-4h1.8v-12.5h-1.8v12.5zm-7.9 4h-5.8c-1.1 0-2-.9-2-2V403c0-1.1.9-2 2-2h5.8c1.1 0 2 .9 2 2v22.3c0 1.1-.9 2-2 2zm-3.7-4h1.8V405h-1.8v18.3z" fill="#DBDBDB"/><path d="M677.8 427.3h-37.7c-1.1 0-2-.9-2-2s.9-2 2-2h37.7c1.1 0 2 .9 2 2s-.9 2-2 2z" fill="#DBDBDB"/></g></g></g></svg>